<svg width="16" height="16" viewBox="0 0 16 16" fill="none" xmlns="http://www.w3.org/2000/svg">
<path d="M16 13.0626V7.63104C16 7.10791 15.9995 6.8462 15.9346 6.60277C15.877 6.38705 15.7825 6.18291 15.6546 5.99843C15.5102 5.79026 15.3096 5.61763 14.9074 5.27315L10.1074 1.16123C9.36081 0.521651 8.98751 0.202021 8.56738 0.0803846C8.19719 -0.0267949 7.80261 -0.0267949 7.43242 0.0803846C7.01261 0.201929 6.63985 0.521257 5.89436 1.15988L1.09277 5.27315C0.69064 5.61764 0.490041 5.79026 0.345703 5.99843C0.217792 6.18291 0.122548 6.38705 0.0649714 6.60277C0 6.8462 0 7.1079 0 7.63104V13.0626C0 13.975 0 14.431 0.152241 14.7908C0.355229 15.2706 0.744319 15.6522 1.23438 15.851C1.60192 16 2.06786 16 2.99974 16C3.93163 16 4.39808 16 4.76562 15.851C5.25568 15.6522 5.64467 15.2707 5.84766 14.7909C5.9999 14.431 6 13.9749 6 13.0625V12.0835C6 11.0021 6.89543 10.1255 8 10.1255C9.10457 10.1255 10 11.0021 10 12.0835V13.0625C10 13.9749 10 14.431 10.1522 14.7909C10.3552 15.2707 10.7443 15.6522 11.2344 15.851C11.6019 16 12.0679 16 12.9997 16C13.9316 16 14.3981 16 14.7656 15.851C15.2557 15.6522 15.6447 15.2706 15.8477 14.7908C15.9999 14.431 16 13.975 16 13.0626Z" fill="#B08300"/>
</svg>
