<svg width="84" height="130" viewBox="0 0 84 130" fill="none" xmlns="http://www.w3.org/2000/svg">
<g clip-path="url(#clip0_5_689)">
<path fill-rule="evenodd" clip-rule="evenodd" d="M0 0H84V130H0V0Z" fill="#002D52"/>
<path fill-rule="evenodd" clip-rule="evenodd" d="M13.9022 81.6392H70.882V84.033H13.9022V81.6392Z" fill="white"/>
<path fill-rule="evenodd" clip-rule="evenodd" d="M18.2115 88.8212V93.6094L22.7607 88.8212H26.8304L22.7607 92.8915L25.6335 100.073L29.2247 88.8212H32.3371L35.9283 99.595V88.8212H40.956L43.3498 96.7217L45.9831 88.8212H50.7719V99.595L54.3626 88.8212H57.7144L61.3056 100.552L65.1365 91.2155H61.3056V88.8212H70.882L66.0939 100.552H70.882V102.947H57.9539L57.4748 101.271H53.4052L52.6867 102.947H46.7016V95.2853L44.3078 102.947H40.956L38.5616 95.2853V102.947H32.5766L32.0976 101.271H28.0273L27.5489 102.947H21.8027L19.4089 96.2432L18.2115 97.4402V102.947H13.9022V88.8212H18.2115ZM30.1822 95.0463L28.7458 98.8765H31.3791L30.1822 95.0463ZM55.3206 95.0463L54.1237 98.8765H56.757L55.3206 95.0463Z" fill="white"/>
<path fill-rule="evenodd" clip-rule="evenodd" d="M36.4068 23.462L36.6462 23.2225L36.8857 22.9835H37.1252V22.744H37.3647H37.6043H37.8432H38.0826V22.9835H38.3221L38.5616 23.2225V23.462L38.3221 23.7015H38.0826V23.9409H37.8432H37.6043H37.3647H37.1252H36.8857H36.6462V23.7015H36.4068V23.462ZM45.7442 23.462L45.5047 23.7015H45.2652V23.9409H45.0257H44.7862H44.5467V23.7015H44.3078L44.0683 23.462V23.2225V22.9835H44.5467L45.2652 23.2225L45.7442 23.462ZM53.1657 77.3294V76.372L52.9262 75.6535V75.1751L52.6867 74.9356H52.2082L51.7293 75.1751H51.4898H51.2503H51.0108H50.7719V74.9356H50.5324H50.2929L50.0534 74.6961L49.8139 74.4566V74.2171L49.5744 73.9777L49.096 74.2171L48.8565 74.4566H48.3775L48.138 74.6961H47.8985H47.4201H46.9412H46.4621L46.2226 73.9777L45.7442 73.0202L45.5047 72.3018L45.0257 71.3444L44.7862 71.1049L44.5467 70.8654H44.3078L44.0683 70.6258L43.5893 70.1475L43.3498 69.6685L43.1103 69.1894L42.6319 68.7111V68.4716L42.3924 68.232L42.1529 67.9925L41.9134 67.753H41.674L41.4345 67.5136L41.1949 67.2741L40.956 67.0351L40.2376 66.3167L39.998 65.8377L39.7585 65.5982L39.519 65.3592L39.2801 65.1198H39.0407L38.8012 64.8803H38.5616L38.3221 64.6408H38.0826L37.3647 64.4013L36.4068 64.1618L35.6888 63.9228L34.9704 63.6834H34.4919L34.2524 63.4439H34.013H33.534L33.7735 63.6834L34.013 64.1618L34.2524 64.4013L34.4919 64.8803L34.9704 65.1198H35.4493L35.6888 65.3592L36.1673 65.5982L36.4068 65.8377L36.6462 66.0772L36.8857 66.3167V66.5561L37.3647 67.2741L37.6043 67.753L37.8432 68.4716L38.3221 69.1894V69.4289L38.5616 69.6685L38.8012 69.908L39.0407 70.3869V70.1475V69.908V69.6685V69.1894V68.9499H39.2801H39.7585H39.998L40.4771 69.1894H40.7165L40.956 69.4289H41.1949L41.4345 69.6685L41.674 69.908L41.9134 70.3869V70.6258L42.1529 70.8654V71.1049V71.5838L42.3924 72.0628L42.1529 72.3018L41.9134 72.5413V72.7808L41.674 73.0202L41.4345 73.2597L41.1949 73.4992L40.956 73.7387H40.7165L40.4771 73.9777H40.2376H39.998H39.7585H39.519H39.2801H39.0407H38.8012V73.7387H38.5616L38.3221 73.4992H38.0826V73.2597H37.8432L37.6043 73.0202V72.7808L37.3647 72.5413L37.1252 72.3018V72.0628L36.8857 71.8233H36.6462L36.4068 71.5838L35.9283 71.3444L35.2099 70.8654L34.4919 70.6258L33.7735 70.1475L32.816 69.908L32.0976 69.4289L31.858 68.9499L31.3791 68.4716L31.1402 67.9925L30.9007 67.5136L30.6612 67.0351L30.4216 66.5561L29.9427 66.0772L29.7032 65.5982L28.7458 65.1198L27.7883 64.6408L27.5489 64.1618L27.0699 63.9228L26.5909 63.6834L26.3514 63.2044V62.7254L26.1125 62.247V62.0075V61.5285L25.873 61.2889L25.6335 60.81V60.3316L25.394 60.092L24.6755 59.6131L23.9576 58.8951L23.4786 58.4162L23.2391 58.1767L23.0002 57.9372V57.6977H22.7607V57.4582H22.5211L22.2817 57.2193H22.0422L21.8027 56.7403V56.5008L21.5632 56.2613L21.3243 56.0219V55.5434L21.0848 55.0644V54.8249V54.3459V53.8675L20.8453 52.9095V51.9521V50.7552V49.7972V48.8398V47.8819L21.0848 46.4455V45.2486L21.3243 44.2912L21.5632 43.5726L21.8027 43.0937L22.0422 42.6152V42.3757L22.2817 41.8968V41.4178L22.5211 40.9393V40.2209V39.7419V39.024V38.545L22.7607 37.5876V36.3901V34.9537V33.0383L23.2391 32.5599L23.4786 32.3204L23.7181 32.0809V31.8414V31.6019L23.9576 31.3625V31.1235V30.884L23.7181 30.6445L23.4786 30.405H23.2391L23.0002 30.1656V29.926L23.2391 29.6865V29.4476L23.4786 29.2081L23.9576 28.7291L24.1971 28.2501L24.6755 27.7717L25.1545 27.2927V27.0532L25.394 26.8137L25.6335 26.5742V26.0958V25.8563V25.3773V25.1379L25.394 24.8984L26.3514 24.4199L27.3094 23.9409L27.5489 23.462L28.0273 23.2225L28.2668 22.9835L28.7458 22.744L28.9852 22.5046L29.4643 22.0256L29.7032 21.786L29.9427 21.3077L30.1821 21.0682L30.4216 20.5891L30.6612 20.1101L30.9007 19.6318L31.3791 19.1527L31.6185 18.6738L32.0976 18.4343L32.5766 17.9558H32.816V18.6738L32.5766 19.1527V19.8707V20.3496L34.013 20.1101H34.9704L35.2099 19.8707H35.4493H35.6888L35.4493 20.3496V20.5891L35.2099 20.8287V21.0682H35.6888H36.4068H37.1252H37.6043L38.0826 21.3077H38.5616L39.0407 21.5465H39.519H39.998H40.4771H41.1949H41.674H42.6319H43.8288H44.3078L44.7862 21.786H45.2652L45.7442 22.0256H45.9831V22.2651L46.2226 22.5046V22.744V22.9835V23.462H46.4621H46.7016L46.9412 23.7015L47.1806 23.9409H47.4201L47.659 24.1804V24.4199L47.8985 24.6589L47.659 24.8984V25.1379L47.4201 25.3773V25.6168H47.1806L46.9412 25.8563H46.2226H45.5047H45.0257L44.7862 26.0958H44.3078H44.0683V26.5742V26.8137H44.7862H45.2652H45.9831H46.4621V27.0532V27.2927V27.5322V27.7717V28.0106L46.2226 28.2501L45.9831 28.4896V28.7291H45.7442L45.5047 28.9687H45.2652H45.0257H44.7862H44.5467H44.3078L44.0683 28.7291H42.8709L41.9134 28.9687H41.4345H40.7165L40.4771 29.2081V29.4476L40.2376 29.6865L39.998 29.926H39.7585L39.519 30.1656H39.2801H38.8012L38.3221 30.405H37.6043H37.1252H36.6462L36.4068 31.3625V32.3204V33.0383V33.9963V34.9537V35.9117V36.6296L36.6462 37.5876H37.3647H38.0826L38.8012 37.3481H39.519L39.998 37.5876H40.7165H41.4345L42.3924 37.8265L42.8709 37.5876L43.3498 37.3481L43.8288 37.1086L44.3078 36.869L44.7862 36.6296L45.5047 36.3901L45.9831 36.1506L46.4621 35.9117L47.4201 35.6721L48.3775 35.4327H49.5744L50.5324 35.1932H51.4898H52.6867H53.6446H54.8415H56.757H58.9118L61.0661 35.4327H63.2211H63.4606H63.7H63.9395V35.6721V35.9117H63.7V36.1506L63.4606 36.6296L62.9815 36.869L62.2637 37.1086L61.3056 37.3481L61.0661 37.5876H60.8267H60.5877V37.8265H60.8267L61.0661 38.0659H61.3056V38.3055V38.545H61.0661V38.7845H60.8267L60.5877 39.024H60.3482L60.1087 39.2635H59.6298L59.1508 39.5024H58.6723H58.4329L57.9539 39.7419H57.4748L57.236 39.9814H56.757L56.5175 40.2209L56.2779 40.4604V40.6998H56.5175V40.9393H56.757H57.236L56.757 41.1783H56.5175L56.2779 41.4178H55.799L55.3206 41.6573H54.602H54.1237H53.4051H52.9262H52.2082H51.0108L49.8139 41.4178L49.096 41.1783H48.617H47.8985H47.1806H46.9412H46.7016L46.4621 41.4178L46.7016 41.8968L46.9412 42.3757V42.8542L47.1806 43.3331L47.4201 43.8121V44.53V45.009L47.659 45.7276L47.8985 46.9245V48.3609V49.5578V50.7552V50.9941L48.138 51.2336L48.3775 51.7126L48.617 52.1917L48.8565 52.67L49.096 53.3886L49.3349 54.3459L49.5744 55.3039L50.0534 56.2613L50.2929 57.4582L50.5324 58.4162V59.6131L50.7719 60.092L51.0108 60.3316V60.81L51.2503 61.2889L51.9688 62.0075L52.4477 62.7254V63.2044L52.6867 63.4439V63.9228L52.9262 64.1618V64.6408L53.1657 65.3592L53.4051 66.0772L53.6446 67.0351L54.1237 67.753L54.602 68.7111L55.0811 69.4289L55.5601 70.3869L55.799 70.6258V71.1049L56.0384 71.3444L56.2779 71.8233L56.757 72.5413L57.236 73.2597L57.4748 73.4992L57.7144 73.9777L57.9539 74.4566V74.6961L58.1934 74.9356V75.414H58.4329V75.6535V75.893H58.1934H57.9539V76.1325H57.7144L57.4748 76.372L57.236 76.6116L56.9965 76.851L56.757 77.0899L56.5175 77.3294H55.799H54.8415H54.1237H53.1657ZM52.9262 70.8654H53.1657V70.6258L53.4051 71.3444L53.8842 72.0628L54.1237 72.5413L54.3626 73.0202V73.2597V73.4992L54.1237 73.7387L53.8842 73.9777H53.6446V74.2171L53.4051 73.9777V73.7387L53.1657 73.4992V73.2597V72.5413L52.9262 71.5838V70.8654ZM53.1657 70.6258V70.8654H52.9262H52.6867H52.4477H52.2082H51.9688V70.3869L52.2082 70.1475V69.908H52.4477H52.6867L52.9262 70.3869L53.1657 70.6258ZM49.8139 70.6258L49.096 70.3869L48.3775 69.908L47.659 69.4289L46.9412 68.9499V68.7111V68.4716V68.232H46.7016L46.4621 67.9925V67.753L46.2226 67.5136L45.9831 67.2741L45.2652 66.7956L44.5467 66.0772L44.3078 65.3592L43.8288 64.4013L43.5893 63.6834L43.1103 62.9649L42.8709 62.7254L42.6319 62.4859L42.1529 62.247L41.9134 62.0075L41.4345 61.768L40.956 61.2889H40.7165V61.0495V60.81H40.4771V60.5711L40.7165 60.3316V60.092L40.956 59.8526L41.1949 59.6131L41.4345 59.1341L41.9134 58.8951L42.3924 58.6557H42.6319H42.8709L43.1103 59.3736L43.5893 59.8526V60.092L43.8288 60.3316L44.0683 60.5711L44.3078 60.81L44.5467 61.0495L44.7862 61.2889L45.0257 61.5285L45.5047 61.768L45.9831 62.247L46.4621 62.4859L46.7016 62.9649L46.9412 63.4439L47.1806 63.6834V64.1618L47.4201 64.6408L47.659 65.1198V65.5982L47.8985 65.8377V66.3167L48.138 66.7956L48.3775 67.2741L48.617 67.753L48.8565 67.9925L49.096 68.4716L49.3349 68.7111L49.5744 69.1894L49.8139 69.908V70.1475L50.0534 70.3869V70.6258H49.8139ZM51.2503 67.2741H51.0108L50.7719 67.0351V66.7956H50.5324V66.5561L50.2929 66.3167V66.0772V65.5982V65.3592V64.8803V64.4013L49.8139 63.9228L49.5744 63.2044L49.3349 62.7254L48.8565 62.247V62.0075L48.617 61.768L48.3775 61.5285L48.138 61.2889L47.8985 61.0495H47.659L47.4201 60.81L46.9412 60.5711L46.7016 60.3316L46.4621 59.8526L46.2226 59.6131L45.9831 59.1341V58.8951L45.7442 58.6557V58.4162V58.1767V57.9372V57.6977H45.9831V57.4582H46.4621H46.7016H47.1806L47.4201 57.6977H47.659L47.8985 57.9372V58.1767L48.138 58.4162L48.3775 58.6557V58.8951L48.617 59.1341V59.3736L48.8565 60.092L49.096 60.81L49.3349 61.5285L49.8139 62.247L50.0534 62.7254L50.5324 63.4439L50.7719 64.1618L51.2503 64.8803L51.4898 65.5982L51.9688 66.0772V66.3167V66.5561V66.7956V67.0351L51.4898 67.2741H51.2503ZM33.0549 66.7956L32.5766 66.0772L32.0976 65.1198L31.6185 64.4013L31.1402 63.4439L30.6612 63.2044L30.1821 62.7254L29.9427 62.4859L29.7032 62.247H29.4643V62.0075L29.2247 61.768V61.5285L28.9852 61.2889V61.0495V60.81L29.2247 60.5711V60.3316L29.4643 60.092H29.7032H29.9427H30.1821H30.4216H30.6612V60.3316L30.9007 60.5711V60.81L31.1402 61.0495L31.3791 61.5285L31.858 62.247L32.0976 63.2044L32.3371 63.6834L32.5766 63.9228V64.4013L32.816 64.8803H33.0549V65.1198L33.2945 65.3592L33.534 65.5982H33.7735V65.8377H34.013L34.2524 66.0772V66.3167V66.5561H34.013L33.7735 66.7956H33.534H33.0549ZM33.2945 57.2193L32.816 56.9798H32.3371L31.858 56.7403H31.3791H30.9007H30.4216H29.9427H29.4643L28.7458 56.2613L28.0273 56.0219L27.7883 55.7824H27.5489L27.3094 55.5434L27.0699 55.3039L26.8304 55.0644V54.8249L26.5909 54.5855V54.3459L26.3514 54.107V53.628L26.1125 53.149V52.67L26.5909 52.4311L26.8304 52.1917L27.3094 51.9521L27.7883 51.7126L28.2668 51.9521L28.7458 52.4311L29.2247 52.67L29.7032 53.149L29.9427 53.628L30.4216 53.8675L30.9007 54.3459L31.1402 54.8249L31.6185 55.0644H31.858L32.0976 55.3039H32.5766H32.816H33.2945V55.5434H33.534H33.7735V55.7824H34.2524H34.7309H34.9704V56.0219V56.2613L34.4919 56.5008L34.2524 56.7403L33.7735 56.9798L33.2945 57.2193ZM36.1673 55.3039V55.0644L35.9283 54.8249V54.5855V54.3459L36.4068 54.107L36.6462 53.8675L36.8857 53.628L37.1252 53.3886V53.149V52.9095V52.67V52.4311V52.1917L36.8857 51.9521L36.6462 51.7126L36.4068 51.4731L36.1673 51.2336H35.9283L35.6888 50.9941L35.4493 50.7552L35.2099 50.5157V50.2762L34.9704 50.0367V49.7972V49.3183L35.2099 49.0793H36.1673H36.8857H37.1252H37.6043H37.8432H38.0826L38.3221 49.3183L38.5616 49.5578H38.8012L39.0407 49.7972L39.2801 50.0367L39.519 50.5157V50.7552L39.7585 51.2336V51.4731L39.519 51.9521L39.2801 52.1917L39.0407 52.4311L38.8012 52.9095L38.3221 53.628L38.0826 53.8675L37.8432 54.3459V54.5855L37.6043 54.8249H37.3647V55.0644H37.1252L36.6462 55.3039H36.1673ZM44.3078 54.8249L43.8288 54.3459L43.5893 54.107L43.3498 53.8675L43.1103 53.628V53.3886H42.8709L42.6319 53.149H42.3924H42.1529H41.9134L41.674 53.3886H41.4345L41.1949 53.628H40.956H40.7165V53.3886V53.149H40.956V52.9095V52.67H41.1949H41.4345L41.674 52.4311H41.9134L42.1529 52.1917V51.7126V51.4731L41.9134 51.2336V50.9941L41.674 50.5157L41.4345 50.0367L41.1949 49.3183L40.956 48.8398L40.4771 48.3609L39.998 47.8819L39.2801 46.9245L38.5616 45.9664L37.6043 45.009L37.1252 44.0517L36.8857 43.5726L36.6462 42.8542V42.3757V41.6573L36.4068 40.9393V40.4604V39.7419V39.024H37.1252L37.6043 39.2635H38.3221L38.8012 39.5024H39.519L39.998 39.7419L40.4771 39.9814L41.1949 40.4604V40.2209V39.9814V39.7419V39.5024V39.2635H41.674L42.3924 39.5024L42.8709 39.7419L43.3498 39.9814L43.8288 40.4604L44.0683 40.6998L44.5467 40.9393L44.7862 41.1783L45.0257 41.6573L45.2652 41.8968L45.5047 42.1362L45.7442 42.6152L45.9831 42.8542V43.3331L46.2226 43.5726V44.0517V44.53L46.4621 44.7695V45.2486V45.4881V45.9664V46.4455L46.2226 46.685V47.1639L45.9831 47.8819L45.7442 48.6003L45.5047 49.3183L45.2652 50.0367V50.2762H45.0257V50.5157H44.7862L44.5467 50.7552H44.0683L43.8288 50.9941H43.5893V51.2336H43.3498V51.4731V51.7126V51.9521H43.5893L43.8288 52.1917H44.0683H44.3078L44.5467 52.4311L44.7862 52.67L45.0257 52.9095V53.149L45.2652 53.3886L45.5047 53.8675V54.107V54.3459H45.2652L45.0257 54.5855H44.7862L44.5467 54.8249H44.3078ZM34.4919 41.4178L34.2524 40.6998L34.013 40.2209L33.7735 39.5024V38.7845L33.534 38.0659V37.3481V36.6296V35.9117V35.1932V34.4752V33.7568V33.0383V31.6019V30.1656L34.013 30.405H34.4919L34.7309 30.6445H34.9704V32.0809L34.7309 33.5173V34.7142L34.4919 36.1506V37.3481V38.7845V39.9814V41.4178Z" fill="white"/>
<path fill-rule="evenodd" clip-rule="evenodd" d="M66.0939 110.847H66.8123H67.2908H67.5303L67.7697 110.608H68.0092V110.368H68.2487V110.129V109.889V109.65V109.411H68.0092V109.171H67.7697V108.932H67.5303H67.2908H66.8123H66.0939V110.847ZM63.4606 107.016H68.0092H68.2487L68.7277 107.256H68.9666H69.2061H69.4456L69.6851 107.495L69.9246 107.735H70.1642L70.4036 107.975V108.213L70.6425 108.453V108.692L70.882 108.932V109.171V109.411V109.889V110.129V110.368V110.847L70.6425 111.087V111.326L70.4036 111.565L70.1642 111.805L69.9246 112.044L69.6851 112.284H69.4456L69.2061 112.523H68.7277H68.4882L68.0092 112.763H67.7697H66.0939V115.875H63.4606V107.016Z" fill="white"/>
<path fill-rule="evenodd" clip-rule="evenodd" d="M51.2502 107.016H59.3902V109.171H56.7569V115.875H53.8841V109.171H51.2502V107.016Z" fill="white"/>
<path fill-rule="evenodd" clip-rule="evenodd" d="M38.8011 107.016H41.6739V110.129H44.5466V107.016H47.1805V115.875H44.5466V112.284H41.6739V115.875H38.8011V107.016Z" fill="white"/>
<path fill-rule="evenodd" clip-rule="evenodd" d="M27.3094 107.016H34.4919V108.932H29.9427V110.368H34.2525V112.284H29.9427V113.96H34.7309V115.875H27.3094V107.016Z" fill="white"/>
<path fill-rule="evenodd" clip-rule="evenodd" d="M23.2391 117.79H21.0848V115.875H13.9022V107.016H16.5355V113.72H19.6484V107.016H22.2817V113.96H23.2391V117.79Z" fill="white"/>
</g>
<defs>
<clipPath id="clip0_5_689">
<rect width="84" height="130" fill="white"/>
</clipPath>
</defs>
</svg>
