<svg width="16" height="16" viewBox="0 0 16 16" fill="none" xmlns="http://www.w3.org/2000/svg">
<path d="M5.77982 1.11753C5.50984 0.44258 4.85616 0 4.12923 0H1.68417C0.754027 0 0 0.753865 0 1.68403C0 9.59043 6.40942 16 14.3156 16C15.2457 16 15.9996 15.2459 15.9996 14.3157L16 11.8702C16 11.1433 15.5575 10.4897 14.8826 10.2197L12.5392 9.28262C11.9329 9.04011 11.2426 9.14925 10.741 9.56728L10.1362 10.0717C9.42986 10.6604 8.39057 10.6135 7.74042 9.96337L6.03738 8.25872C5.38723 7.60856 5.33918 6.57008 5.9278 5.86372L6.43213 5.25894C6.85015 4.7573 6.96026 4.06681 6.71775 3.46053L5.77982 1.11753Z" fill="#B08300"/>
</svg>
