<svg width="48" height="84" viewBox="0 0 48 84" fill="none" xmlns="http://www.w3.org/2000/svg">
<path fill-rule="evenodd" clip-rule="evenodd" d="M0 53.5828H48V55.5969H0V53.5828Z" fill="white"/>
<path fill-rule="evenodd" clip-rule="evenodd" d="M3.63017 59.6257V63.6545L7.46243 59.6257H10.8908L7.46243 63.0505L9.88249 69.0929L12.9077 59.6257H15.5296L18.5549 68.6908V59.6257H22.7902L24.8068 66.2732L27.0251 59.6257H31.0592V68.6908L34.084 59.6257H36.9076L39.9328 69.496L43.16 61.6403H39.9328V59.6257H48L43.9665 69.496H48V71.5111H37.1093L36.7057 70.1009H33.2775L32.6722 71.5111H27.6303V65.0646L25.6138 71.5111H22.7902L20.7732 65.0646V71.5111H15.7314L15.3279 70.1009H11.899L11.496 71.5111H6.65541L4.63886 65.8706L3.63017 66.8777V71.5111H0V59.6257H3.63017ZM13.7143 64.8635L12.5043 68.0862H14.7226L13.7143 64.8635ZM34.891 64.8635L33.8827 68.0862H36.101L34.891 64.8635Z" fill="white"/>
<path fill-rule="evenodd" clip-rule="evenodd" d="M18.9579 4.63289L19.1596 4.43138L19.3614 4.23028H19.5631V4.02877H19.7649H19.9667H20.168H20.3696V4.23028H20.5714L20.7732 4.43138V4.63289L20.5714 4.8344H20.3696V5.03583H20.168H19.9667H19.7649H19.5631H19.3614H19.1596V4.8344H18.9579V4.63289ZM26.8238 4.63289L26.622 4.8344H26.4203V5.03583H26.2185H26.0168H25.815V4.8344H25.6138L25.412 4.63289V4.43138V4.23028H25.815L26.4203 4.43138L26.8238 4.63289ZM33.0757 49.9566V49.1511L32.8739 48.5466V48.144L32.6722 47.9425H32.2691L31.8657 48.144H31.6639H31.4622H31.2604H31.0592V47.9425H30.8574H30.6556L30.4539 47.741L30.2521 47.5395V47.338L30.0504 47.1365L29.6474 47.338L29.4456 47.5395H29.0421L28.8403 47.741H28.6386H28.2356H27.8322H27.4286L27.2268 47.1365L26.8238 46.3309L26.622 45.7264L26.2185 44.9209L26.0168 44.7194L25.815 44.5179H25.6138L25.412 44.3163L25.0085 43.9138L24.8068 43.5108L24.605 43.1077L24.202 42.7052V42.5037L24.0002 42.3021L23.7985 42.1006L23.5967 41.8991H23.3951L23.1933 41.6977L22.9915 41.4962L22.7902 41.2951L22.185 40.6906L21.9832 40.2876L21.7814 40.0861L21.5797 39.885L21.3784 39.6835H21.1767L20.975 39.482H20.7732L20.5714 39.2805H20.3696L19.7649 39.079L18.9579 38.8775L18.3531 38.6764L17.7479 38.475H17.3448L17.1431 38.2735H16.9414H16.5379L16.7396 38.475L16.9414 38.8775L17.1431 39.079L17.3448 39.482L17.7479 39.6835H18.1513L18.3531 39.885L18.7562 40.0861L18.9579 40.2876L19.1596 40.4891L19.3614 40.6906V40.892L19.7649 41.4962L19.9667 41.8991L20.168 42.5037L20.5714 43.1077V43.3092L20.7732 43.5108L20.975 43.7123L21.1767 44.1153V43.9138V43.7123V43.5108V43.1077V42.9062H21.3784H21.7814H21.9832L22.3868 43.1077H22.5884L22.7902 43.3092H22.9915L23.1933 43.5108L23.3951 43.7123L23.5967 44.1153V44.3163L23.7985 44.5179V44.7194V45.1223L24.0002 45.5253L23.7985 45.7264L23.5967 45.928V46.1295L23.3951 46.3309L23.1933 46.5324L22.9915 46.7339L22.7902 46.9354H22.5884L22.3868 47.1365H22.185H21.9832H21.7814H21.5797H21.3784H21.1767H20.975V46.9354H20.7732L20.5714 46.7339H20.3696V46.5324H20.168L19.9667 46.3309V46.1295L19.7649 45.928L19.5631 45.7264V45.5253L19.3614 45.3238H19.1596L18.9579 45.1223L18.5549 44.9209L17.9497 44.5179L17.3448 44.3163L16.7396 43.9138L15.933 43.7123L15.3279 43.3092L15.126 42.9062L14.7226 42.5037L14.5213 42.1006L14.3196 41.6977L14.1178 41.2951L13.916 40.892L13.5126 40.4891L13.3108 40.0861L12.5043 39.6835L11.6977 39.2805L11.496 38.8775L11.0925 38.6764L10.689 38.475L10.4872 38.0719V37.6689L10.286 37.2664V37.0649V36.6618L10.0842 36.4602L9.88247 36.0573V35.6548L9.68072 35.4532L9.07545 35.0502L8.47069 34.4461L8.06718 34.0432L7.86542 33.8417L7.66417 33.6401V33.4386H7.46242V33.2371H7.26058L7.05891 33.0361H6.85715L6.65539 32.6331V32.4316L6.45364 32.23L6.25239 32.0286V31.626L6.05063 31.223V31.0215V30.6184V30.2159L5.84888 29.4099V28.6043V27.5972V26.7912V25.9856V25.1797L6.05063 23.9711V22.964L6.25239 22.1585L6.45364 21.5538L6.65539 21.1509L6.85715 20.7483V20.5468L7.05891 20.1438V19.7408L7.26058 19.3382V18.7337V18.3307V17.7267V17.3236L7.46242 16.5181V15.5105V14.3019V12.6903L7.86542 12.2878L8.06718 12.0863L8.26893 11.8848V11.6833V11.4818L8.47069 11.2803V11.0792V10.8777L8.26893 10.6762L8.06718 10.4747H7.86542L7.66417 10.2733V10.0717L7.86542 9.87015V9.66914L8.06718 9.46763L8.47069 9.0646L8.67244 8.66157L9.07545 8.25905L9.47896 7.85602V7.65451L9.68072 7.45299L9.88247 7.25148V6.84896V6.64744V6.24441V6.04298L9.68072 5.84147L10.4872 5.43886L11.2943 5.03583L11.496 4.63289L11.899 4.43138L12.1008 4.23028L12.5043 4.02877L12.706 3.82734L13.1096 3.42431L13.3108 3.22271L13.5126 2.82027L13.7142 2.61876L13.916 2.21565L14.1178 1.81262L14.3196 1.41018L14.7226 1.00707L14.9243 0.604122L15.3279 0.402608L15.7314 0H15.933V0.604122L15.7314 1.00707V1.61119V2.01413L16.9414 1.81262H17.7479L17.9497 1.61119H18.1513H18.3531L18.1513 2.01413V2.21565L17.9497 2.41724V2.61876H18.3531H18.9579H19.5631H19.9667L20.3696 2.82027H20.7732L21.1767 3.0212H21.5797H21.9832H22.3868H22.9915H23.3951H24.202H25.2103H25.6138L26.0168 3.22271H26.4203L26.8238 3.42431H27.0251V3.62582L27.2268 3.82734V4.02877V4.23028V4.63289H27.4286H27.6303L27.8322 4.8344L28.0338 5.03583H28.2356L28.4368 5.23735V5.43886L28.6386 5.63995L28.4368 5.84147V6.04298L28.2356 6.24441V6.44593H28.0338L27.8322 6.64744H27.2268H26.622H26.2185L26.0168 6.84896H25.6138H25.412V7.25148V7.45299H26.0168H26.4203H27.0251H27.4286V7.65451V7.85602V8.05753V8.25905V8.46006L27.2268 8.66157L27.0251 8.86308V9.0646H26.8238L26.622 9.2662H26.4203H26.2185H26.0168H25.815H25.6138L25.412 9.0646H24.4033L23.5967 9.2662H23.1933H22.5884L22.3868 9.46763V9.66914L22.185 9.87015L21.9832 10.0717H21.7814L21.5797 10.2733H21.3784H20.975L20.5714 10.4747H19.9667H19.5631H19.1596L18.9579 11.2803V12.0863V12.6903V13.4964V14.3019V15.108V15.712L19.1596 16.5181H19.7649H20.3696L20.975 16.3166H21.5797L21.9832 16.5181H22.5884H23.1933L24.0002 16.7191L24.4033 16.5181L24.8068 16.3166L25.2103 16.1151L25.6138 15.9135L26.0168 15.712L26.622 15.5105L27.0251 15.309L27.4286 15.108L28.2356 14.9064L29.0421 14.705H30.0504L30.8574 14.5035H31.6639H32.6722H33.4791H34.4874H36.101H37.9162L39.731 14.705H41.5464H41.7482H41.9498H42.1516V14.9064V15.108H41.9498V15.309L41.7482 15.712L41.3446 15.9135L40.7399 16.1151L39.9328 16.3166L39.731 16.5181H39.5294H39.328V16.7191H39.5294L39.731 16.9205H39.9328V17.1221V17.3236H39.731V17.5252H39.5294L39.328 17.7267H39.1263L38.9245 17.9282H38.5211L38.1176 18.1292H37.7145H37.5128L37.1093 18.3307H36.7057L36.5045 18.5322H36.101L35.8993 18.7337L35.6974 18.9353V19.1367H35.8993V19.3382H36.101H36.5045L36.101 19.5393H35.8993L35.6974 19.7408H35.294L34.891 19.9423H34.2856H33.8827H33.2774H32.8739H32.2691H31.2604L30.2521 19.7408L29.6474 19.5393H29.2439H28.6386H28.0338H27.8322H27.6303L27.4286 19.7408L27.6303 20.1438L27.8322 20.5468V20.9494L28.0338 21.3523L28.2356 21.7554V22.3594V22.7624L28.4368 23.3671L28.6386 24.3741V25.5827V26.5898V27.5972V27.7983L28.8403 27.9998L29.0421 28.4028L29.2439 28.8059L29.4456 29.2083L29.6474 29.813L29.8486 30.6184L30.0504 31.4245L30.4539 32.23L30.6556 33.2371L30.8574 34.0432V35.0502L31.0592 35.4532L31.2604 35.6548V36.0573L31.4622 36.4602L32.0674 37.0649L32.4709 37.6689V38.0719L32.6722 38.2735V38.6764L32.8739 38.8775V39.2805L33.0757 39.885L33.2774 40.4891L33.4791 41.2951L33.8827 41.8991L34.2856 42.7052L34.6892 43.3092L35.0928 44.1153L35.294 44.3163V44.7194L35.4957 44.9209L35.6974 45.3238L36.101 45.928L36.5045 46.5324L36.7057 46.7339L36.9075 47.1365L37.1093 47.5395V47.741L37.3111 47.9425V48.345H37.5128V48.5466V48.7481H37.3111H37.1093V48.9496H36.9075L36.7057 49.1511L36.5045 49.3527L36.3028 49.5541L36.101 49.7551L35.8993 49.9566H35.294H34.4874H33.8827H33.0757ZM32.8739 44.5179H33.0757V44.3163L33.2774 44.9209L33.681 45.5253L33.8827 45.928L34.084 46.3309V46.5324V46.7339L33.8827 46.9354L33.681 47.1365H33.4791V47.338L33.2774 47.1365V46.9354L33.0757 46.7339V46.5324V45.928L32.8739 45.1223V44.5179ZM33.0757 44.3163V44.5179H32.8739H32.6722H32.4709H32.2691H32.0674V44.1153L32.2691 43.9138V43.7123H32.4709H32.6722L32.8739 44.1153L33.0757 44.3163ZM30.2521 44.3163L29.6474 44.1153L29.0421 43.7123L28.4368 43.3092L27.8322 42.9062V42.7052V42.5037V42.3021H27.6303L27.4286 42.1006V41.8991L27.2268 41.6977L27.0251 41.4962L26.4203 41.0936L25.815 40.4891L25.6138 39.885L25.2103 39.079L25.0085 38.475L24.605 37.8704L24.4033 37.6689L24.202 37.4674L23.7985 37.2664L23.5967 37.0649L23.1933 36.8634L22.7902 36.4602H22.5884V36.2588V36.0573H22.3868V35.8563L22.5884 35.6548V35.4532L22.7902 35.2518L22.9915 35.0502L23.1933 34.6472L23.5967 34.4461L24.0002 34.2447H24.202H24.4033L24.605 34.8487L25.0085 35.2518V35.4532L25.2103 35.6548L25.412 35.8563L25.6138 36.0573L25.815 36.2588L26.0168 36.4602L26.2185 36.6618L26.622 36.8634L27.0251 37.2664L27.4286 37.4674L27.6303 37.8704L27.8322 38.2735L28.0338 38.475V38.8775L28.2356 39.2805L28.4368 39.6835V40.0861L28.6386 40.2876V40.6906L28.8403 41.0936L29.0421 41.4962L29.2439 41.8991L29.4456 42.1006L29.6474 42.5037L29.8486 42.7052L30.0504 43.1077L30.2521 43.7123V43.9138L30.4539 44.1153V44.3163H30.2521ZM31.4622 41.4962H31.2604L31.0592 41.2951V41.0936H30.8574V40.892L30.6556 40.6906V40.4891V40.0861V39.885V39.482V39.079L30.2521 38.6764L30.0504 38.0719L29.8486 37.6689L29.4456 37.2664V37.0649L29.2439 36.8634L29.0421 36.6618L28.8403 36.4602L28.6386 36.2588H28.4368L28.2356 36.0573L27.8322 35.8563L27.6303 35.6548L27.4286 35.2518L27.2268 35.0502L27.0251 34.6472V34.4461L26.8238 34.2447V34.0432V33.8417V33.6401V33.4386H27.0251V33.2371H27.4286H27.6303H28.0338L28.2356 33.4386H28.4368L28.6386 33.6401V33.8417L28.8403 34.0432L29.0421 34.2447V34.4461L29.2439 34.6472V34.8487L29.4456 35.4532L29.6474 36.0573L29.8486 36.6618L30.2521 37.2664L30.4539 37.6689L30.8574 38.2735L31.0592 38.8775L31.4622 39.482L31.6639 40.0861L32.0674 40.4891V40.6906V40.892V41.0936V41.2951L31.6639 41.4962H31.4622ZM16.1343 41.0936L15.7314 40.4891L15.3279 39.6835L14.9243 39.079L14.5213 38.2735L14.1178 38.0719L13.7142 37.6689L13.5126 37.4674L13.3108 37.2664H13.1096V37.0649L12.9077 36.8634V36.6618L12.706 36.4602V36.2588V36.0573L12.9077 35.8563V35.6548L13.1096 35.4532H13.3108H13.5126H13.7142H13.916H14.1178V35.6548L14.3196 35.8563V36.0573L14.5213 36.2588L14.7226 36.6618L15.126 37.2664L15.3279 38.0719L15.5296 38.475L15.7314 38.6764V39.079L15.933 39.482H16.1343V39.6835L16.3361 39.885L16.5379 40.0861H16.7396V40.2876H16.9414L17.1431 40.4891V40.6906V40.892H16.9414L16.7396 41.0936H16.5379H16.1343ZM16.3361 33.0361L15.933 32.8346H15.5296L15.126 32.6331H14.7226H14.3196H13.916H13.5126H13.1096L12.5043 32.23L11.899 32.0286L11.6977 31.8271H11.496L11.2943 31.626L11.0925 31.4245L10.8907 31.223V31.0215L10.689 30.82V30.6184L10.4872 30.4174V30.0144L10.286 29.6114V29.2083L10.689 29.0073L10.8907 28.8059L11.2943 28.6043L11.6977 28.4028L12.1008 28.6043L12.5043 29.0073L12.9077 29.2083L13.3108 29.6114L13.5126 30.0144L13.916 30.2159L14.3196 30.6184L14.5213 31.0215L14.9243 31.223H15.126L15.3279 31.4245H15.7314H15.933H16.3361V31.626H16.5379H16.7396V31.8271H17.1431H17.5462H17.7479V32.0286V32.23L17.3448 32.4316L17.1431 32.6331L16.7396 32.8346L16.3361 33.0361ZM18.7562 31.4245V31.223L18.5549 31.0215V30.82V30.6184L18.9579 30.4174L19.1596 30.2159L19.3614 30.0144L19.5631 29.813V29.6114V29.4099V29.2083V29.0073V28.8059L19.3614 28.6043L19.1596 28.4028L18.9579 28.2013L18.7562 27.9998H18.5549L18.3531 27.7983L18.1513 27.5972L17.9497 27.3957V27.1942L17.7479 26.9927V26.7912V26.3882L17.9497 26.1872H18.7562H19.3614H19.5631H19.9667H20.168H20.3696L20.5714 26.3882L20.7732 26.5898H20.975L21.1767 26.7912L21.3784 26.9927L21.5797 27.3957V27.5972L21.7814 27.9998V28.2013L21.5797 28.6043L21.3784 28.8059L21.1767 29.0073L20.975 29.4099L20.5714 30.0144L20.3696 30.2159L20.168 30.6184V30.82L19.9667 31.0215H19.7649V31.223H19.5631L19.1596 31.4245H18.7562ZM25.6138 31.0215L25.2103 30.6184L25.0085 30.4174L24.8068 30.2159L24.605 30.0144V29.813H24.4033L24.202 29.6114H24.0002H23.7985H23.5967L23.3951 29.813H23.1933L22.9915 30.0144H22.7902H22.5884V29.813V29.6114H22.7902V29.4099V29.2083H22.9915H23.1933L23.3951 29.0073H23.5967L23.7985 28.8059V28.4028V28.2013L23.5967 27.9998V27.7983L23.3951 27.3957L23.1933 26.9927L22.9915 26.3882L22.7902 25.9856L22.3868 25.5827L21.9832 25.1797L21.3784 24.3741L20.7732 23.568L19.9667 22.7624L19.5631 21.957L19.3614 21.5538L19.1596 20.9494V20.5468V19.9423L18.9579 19.3382V18.9353V18.3307V17.7267H19.5631L19.9667 17.9282H20.5714L20.975 18.1292H21.5797L21.9832 18.3307L22.3868 18.5322L22.9915 18.9353V18.7337V18.5322V18.3307V18.1292V17.9282H23.3951L24.0002 18.1292L24.4033 18.3307L24.8068 18.5322L25.2103 18.9353L25.412 19.1367L25.815 19.3382L26.0168 19.5393L26.2185 19.9423L26.4203 20.1438L26.622 20.3453L26.8238 20.7483L27.0251 20.9494V21.3523L27.2268 21.5538V21.957V22.3594L27.4286 22.5609V22.964V23.1655V23.568V23.9711L27.2268 24.1726V24.5755L27.0251 25.1797L26.8238 25.7841L26.622 26.3882L26.4203 26.9927V27.1942H26.2185V27.3957H26.0168L25.815 27.5972H25.412L25.2103 27.7983H25.0085V27.9998H24.8068V28.2013V28.4028V28.6043H25.0085L25.2103 28.8059H25.412H25.6138L25.815 29.0073L26.0168 29.2083L26.2185 29.4099V29.6114L26.4203 29.813L26.622 30.2159V30.4174V30.6184H26.4203L26.2185 30.82H26.0168L25.815 31.0215H25.6138ZM17.3448 19.7408L17.1431 19.1367L16.9414 18.7337L16.7396 18.1292V17.5252L16.5379 16.9205V16.3166V15.712V15.108V14.5035V13.8993V13.2949V12.6903V11.4818V10.2733L16.9414 10.4747H17.3448L17.5462 10.6762H17.7479V11.8848L17.5462 13.0934V14.1004L17.3448 15.309V16.3166V17.5252V18.5322V19.7408Z" fill="white"/>
<path fill-rule="evenodd" clip-rule="evenodd" d="M43.9665 78.1582H44.5717H44.9747H45.1765L45.3782 77.9571H45.5799V77.7552H45.7817V77.5541V77.3521V77.1511V76.95H45.5799V76.748H45.3782V76.5469H45.1765H44.9747H44.5717H43.9665V78.1582ZM41.7482 74.9348H45.5799H45.7817L46.1852 75.1367H46.3864H46.5882H46.79L46.9917 75.3378L47.1935 75.5398H47.3953L47.597 75.7417V75.942L47.7982 76.1439V76.345L48 76.5469V76.748V76.95V77.3521V77.5541V77.7552V78.1582L47.7982 78.3601V78.5612L47.597 78.7623L47.3953 78.9643L47.1935 79.1653L46.9917 79.3673H46.79L46.5882 79.5684H46.1852H45.9834L45.5799 79.7703H45.3782H43.9665V82.3887H41.7482V74.9348Z" fill="white"/>
<path fill-rule="evenodd" clip-rule="evenodd" d="M31.4622 74.9348H38.3193V76.748H36.101V82.3887H33.681V76.748H31.4622V74.9348Z" fill="white"/>
<path fill-rule="evenodd" clip-rule="evenodd" d="M20.975 74.9348H23.395V77.5541H25.815V74.9348H28.0338V82.3887H25.815V79.3673H23.395V82.3887H20.975V74.9348Z" fill="white"/>
<path fill-rule="evenodd" clip-rule="evenodd" d="M11.2943 74.9348H17.3449V76.5469H13.5126V77.7552H17.1432V79.3673H13.5126V80.7775H17.5462V82.3887H11.2943V74.9348Z" fill="white"/>
<path fill-rule="evenodd" clip-rule="evenodd" d="M7.86544 84H6.05065V82.3887H0V74.9348H2.2183V80.5755H4.84062V74.9348H7.05892V80.7775H7.86544V84Z" fill="white"/>
</svg>
