<svg width="47" height="46" viewBox="0 0 47 46" fill="none" xmlns="http://www.w3.org/2000/svg">
<path d="M31 45C32.6569 45 34 43.6569 34 42C34 40.3431 32.6569 39 31 39C29.3431 39 28 40.3431 28 42C28 43.6569 29.3431 45 31 45Z" stroke="currentColor" stroke-width="2" stroke-miterlimit="10"/>
<path d="M26 42H28" stroke="currentColor" stroke-width="2" stroke-miterlimit="10"/>
<path d="M34 42.0001H37V35.7321C37 35.5231 36.962 35.3151 36.888 35.1211L34.211 28.1121C33.994 27.5421 33.491 27.1461 32.909 27.0851L26 26.3611" stroke="currentColor" stroke-width="2" stroke-miterlimit="10" stroke-linecap="round" stroke-linejoin="round"/>
<path d="M33.698 34.281L29.936 33.648L29.115 30.281" stroke="currentColor" stroke-width="2" stroke-miterlimit="10" stroke-linecap="round" stroke-linejoin="round"/>
<path d="M16.074 20.501C16.025 20.007 16 19.507 16 19C16 10.716 22.716 4 31 4C39.284 4 46 10.716 46 19C46 23.934 43.618 28.312 39.94 31.046" stroke="currentColor" stroke-width="2" stroke-miterlimit="10" stroke-linecap="round" stroke-linejoin="round"/>
<path d="M8 45C9.65685 45 11 43.6569 11 42C11 40.3431 9.65685 39 8 39C6.34315 39 5 40.3431 5 42C5 43.6569 6.34315 45 8 45Z" stroke="currentColor" stroke-width="2" stroke-miterlimit="10"/>
<path d="M11 42H26V24H1V42H5" stroke="currentColor" stroke-width="2" stroke-miterlimit="10" stroke-linecap="round" stroke-linejoin="round"/>
<path d="M31 4V1" stroke="currentColor" stroke-width="2" stroke-miterlimit="10" stroke-linecap="round" stroke-linejoin="round"/>
<path d="M29 1H33" stroke="currentColor" stroke-width="2" stroke-miterlimit="10" stroke-linecap="round" stroke-linejoin="round"/>
<path d="M31 8V19" stroke="currentColor" stroke-width="2" stroke-miterlimit="10" stroke-linecap="round" stroke-linejoin="round"/>
<path d="M20.394 8.39401L18.5 6.5" stroke="currentColor" stroke-width="2" stroke-miterlimit="10" stroke-linecap="round" stroke-linejoin="round"/>
<path d="M41.606 8.39401L43.4999 6.5" stroke="currentColor" stroke-width="2" stroke-miterlimit="10" stroke-linecap="round" stroke-linejoin="round"/>
</svg>
