<svg width="48" height="38" viewBox="0 0 48 38" fill="none" xmlns="http://www.w3.org/2000/svg">
<path d="M1.00098 7V1H31.001V25H26.001" stroke="currentColor" stroke-width="2" stroke-miterlimit="10" stroke-linecap="round" stroke-linejoin="round"/>
<path d="M40.001 28C41.6578 28 43.001 26.6569 43.001 25C43.001 23.3431 41.6578 22 40.001 22C38.3441 22 37.001 23.3431 37.001 25C37.001 26.6569 38.3441 28 40.001 28Z" stroke="currentColor" stroke-width="2" stroke-miterlimit="10"/>
<path d="M31.001 25H37.001" stroke="currentColor" stroke-width="2" stroke-miterlimit="10"/>
<path d="M43.001 25H47.001C47.001 25 47.001 23.327 47.001 22.164C47.001 21.001 46.789 20.034 46.001 18.94C45.703 18.527 43.26 16.158 42.146 15.42C40.599 12.67 40.272 12.188 39.001 10.001" stroke="currentColor" stroke-width="2" stroke-miterlimit="10" stroke-linecap="round" stroke-linejoin="round"/>
<path d="M34.001 10.0001H39.001C38.101 8.24512 34.501 3.97412 32.604 4.00012H31.001" stroke="currentColor" stroke-width="2" stroke-miterlimit="10" stroke-linecap="round" stroke-linejoin="round"/>
<path d="M34.001 13.606L35.001 16.439L39.584 16.939" stroke="currentColor" stroke-width="2" stroke-miterlimit="10" stroke-linecap="round" stroke-linejoin="round"/>
<path d="M9.00098 17C11.291 17 13.001 15.082 13.001 12.715V11.285C13.001 8.919 11.291 7 9.00098 7C6.71098 7 5.00098 8.919 5.00098 11.285V12.715C5.00098 15.082 6.71098 17 9.00098 17Z" stroke="currentColor" stroke-width="2" stroke-miterlimit="10" stroke-linecap="round"/>
<path d="M8.85699 33.503L5.62601 32.845C4.67501 32.711 4.03001 32.498 3.14301 31.157L2.289 29.274C1.536 27.619 1 26.909 1 25.563C1 22.744 2.44102 20 5.61902 20C6.26902 20 8.416 20 11.383 20C13.231 20.075 14.365 20.398 15.374 21.615C16.383 22.832 17.329 23.979 17.329 23.979" stroke="currentColor" stroke-width="2" stroke-miterlimit="10" stroke-linecap="round" stroke-linejoin="round"/>
<path d="M5.73804 25.2849L6.64203 27.5449C7.00303 28.4469 7.43904 28.8009 8.28104 29.1119L10.609 29.9389" stroke="currentColor" stroke-width="2" stroke-miterlimit="10" stroke-linecap="round" stroke-linejoin="round"/>
<path d="M19.5441 32C19.5441 32 16.8351 32 16.0141 32C15.8231 29.625 17.8901 28 17.8901 28H21.0621C21.7601 28 22.213 28.782 21.901 29.447L21.2221 30.894C20.9041 31.572 20.2541 32 19.5441 32Z" stroke="currentColor" stroke-width="2" stroke-miterlimit="10" stroke-linecap="round" stroke-linejoin="round"/>
<path d="M20.589 28L21.904 25.308C22.204 24.698 21.767 23.979 21.097 23.979H14.093C13.751 23.979 13.439 24.176 13.286 24.487L8.77493 33.671C8.47493 34.281 8.91094 35 9.58194 35H16.5869C16.9279 35 17.241 34.804 17.394 34.492L18.618 32" stroke="currentColor" stroke-width="2" stroke-miterlimit="10" stroke-linecap="round" stroke-linejoin="round"/>
<path d="M5.00098 32.7241V37.0001" stroke="currentColor" stroke-width="2" stroke-miterlimit="10" stroke-linecap="round" stroke-linejoin="round"/>
<path d="M15.001 35V37" stroke="currentColor" stroke-width="2" stroke-miterlimit="10" stroke-linecap="round" stroke-linejoin="round"/>
</svg>
