<svg width="14" height="16" viewBox="0 0 14 16" fill="none" xmlns="http://www.w3.org/2000/svg">
<path d="M7.69434 14.831C9.27395 14.0832 13 11.7731 13 6.62065V3.50783C13 2.63088 13 2.19174 12.8367 1.85646C12.6929 1.56126 12.4628 1.32142 12.1805 1.171C11.8597 1 11.4402 1 10.6001 1H3.40015C2.56007 1 2.13972 1 1.81885 1.171C1.5366 1.32142 1.3073 1.56126 1.16349 1.85646C1 2.19207 1 2.63174 1 3.51041V6.62064C1 11.7731 4.72585 14.0832 6.30546 14.831C6.47292 14.9103 6.55707 14.9499 6.7466 14.9839C6.86616 15.0054 7.1346 15.0054 7.25415 14.9839C7.44303 14.95 7.5263 14.9106 7.69261 14.8318L7.69434 14.831Z" stroke="white" stroke-width="2" stroke-linecap="round" stroke-linejoin="round"/>
</svg>
