<svg width="23" height="22" viewBox="0 0 23 22" fill="none" xmlns="http://www.w3.org/2000/svg">
<path d="M3.51703 10.9938C3.51703 10.9938 4.13757 10.9251 5.31208 8.9386C5.31208 8.9386 5.33871 8.90386 5.38271 8.83711C5.96553 11.5532 8.77091 11.1136 8.77091 11.1136L9.04013 10.0605C7.15558 10.4711 7.13117 8.23675 7.13117 8.23675L10.019 9.23839C10.2753 8.95539 10.4384 8.60407 10.5072 8.22621C10.5345 9.13104 10.4532 10.1065 10.1906 11.1136C10.1906 11.1136 11.9361 10.4453 13.1435 11.6101C13.1435 11.6101 13.0282 9.58736 12.4246 7.49587C12.7708 7.28235 13.5108 6.96734 13.6413 8.08256C13.8129 9.54676 15.7703 11.5758 17.606 9.05844C17.606 9.05844 16.4559 9.72632 15.8195 8.33941C15.2241 7.04189 14.993 5.34114 13.3839 5.8404C14.3051 5.10733 15.1668 3.92027 14.0817 2.81676C12.635 1.34514 10.3796 3.1021 9.9824 3.43273C9.72243 3.26254 9.44174 3.13099 9.13813 3.04784C9.13813 3.04784 10.0686 4.65101 10.3984 6.96617C10.1873 6.36737 9.74499 5.81386 9.06454 5.46254C8.25465 5.0437 7.17851 5.11943 6.38157 5.67997C6.5502 4.27861 6.51063 2.40221 5.93225 0L3.12577 1.47279C3.12577 1.47279 5.31208 5.85641 3.3214 8.76763C3.3214 8.76763 0.775999 7.15783 2.37505 3.90427L0.743825 3.59589C0.743825 3.59589 -0.0974912 4.59167 0.00938375 6.15619C0.13327 7.96429 1.33478 10.4106 3.51703 10.9938ZM12.9808 3.78678C13.6169 4.6069 12.665 5.34193 11.8385 5.50119C11.8385 5.50119 11.6869 4.53273 11.137 3.90232C11.137 3.90232 12.3447 2.96626 12.9808 3.78678ZM8.79236 6.20616C9.32119 6.39509 9.61001 7.01964 9.50831 7.67387L7.3967 6.8678C7.7029 6.31272 8.27758 6.0223 8.79236 6.20616ZM18.9196 8.49321H18.9551C18.6419 9.62327 18.0827 10.2677 17.386 10.7365C16.1131 11.593 14.449 11.1136 14.449 11.1136C14.8243 12.2093 18.9196 14.2641 20.1921 10.6339C21.4646 7.00364 19.1644 4.52063 19.1644 4.52063C19.2827 6.02347 19.2361 7.16056 19.062 8.04119C18.7262 8.09232 16.9452 8.19772 17.7447 4.45232L15.9175 3.73291C15.9175 3.73291 15.0037 8.87029 18.9196 8.49321Z" fill="currentColor"/>
<path d="M20.2409 13.7849C18.0712 13.2368 16.684 13.9391 16.684 13.9391C16.684 13.9391 17.9895 14.3669 18.218 16.5763C18.4462 18.7853 16.1456 20.3092 16.1456 20.3092C16.1456 20.3092 18.691 20.8057 20.6 19.9665C22.5089 19.1276 22.5581 17.0728 22.5581 16.7816C22.5581 16.4904 22.4109 14.3329 20.2409 13.7849ZM19.6917 18.4437C19.6532 18.4457 19.6155 18.4445 19.5774 18.4421C19.9095 18.083 20.1129 17.5174 20.087 16.8886C20.056 16.1223 19.6939 15.479 19.2017 15.2038C19.3141 15.1624 19.4328 15.1359 19.5567 15.13C20.3219 15.0957 20.9724 15.8096 21.0097 16.7246C21.0471 17.64 20.4572 18.4098 19.6917 18.4437ZM17.2144 16.8402C17.2144 15.1812 15.916 13.836 14.3143 13.836C14.1557 13.836 14 13.8501 13.8487 13.8755C13.429 12.7977 12.4205 12.0381 11.2427 12.0381C9.81077 12.0381 8.62922 13.1611 8.45209 14.6136C7.21027 14.8533 5.86675 15.6816 5.4178 18.0229L6.91109 18.3828C6.91109 18.3828 7.20879 17.5112 8.00721 16.727L8.03679 16.816C8.03679 16.816 8.23279 19.3845 6.25024 19.6928C4.26769 20.0012 3.0684 17.7149 3.68043 16.1996C4.29247 14.6839 5.54058 15.0863 5.54058 15.0863L7.95506 12.706L7.0494 12.3121C4.49586 11.3702 1.20863 13.117 1.01263 16.944C0.817 20.7714 4.90413 23.1092 7.74316 21.157C9.28083 20.0996 9.58333 18.5448 9.53785 17.3418C10.0112 17.7208 10.6014 17.946 11.2427 17.946C11.3669 17.946 11.4886 17.9366 11.6084 17.9206C12.0274 19.0452 13.0806 19.8435 14.3143 19.8435C15.916 19.8435 17.2144 18.4987 17.2144 16.8402ZM11.8665 15.2296C11.8388 15.2752 11.8118 15.3213 11.7859 15.3685C11.6018 15.6379 11.3015 15.8139 10.9612 15.8139C10.7135 15.8139 10.4864 15.7206 10.3096 15.5657C10.5123 15.5333 10.7246 15.5114 10.949 15.5059L10.8758 14.7354C10.8758 14.7354 10.5086 14.6195 9.96239 14.5613C10.0467 14.062 10.4613 13.6822 10.9612 13.6822C11.5222 13.6822 11.9771 14.1592 11.9771 14.7483C11.9771 14.9216 11.9368 15.0848 11.8665 15.2296ZM13.6901 17.7149C13.3876 17.7149 13.1161 17.5767 12.9279 17.3582C13.4645 16.9366 13.8524 16.3183 13.9959 15.6059C14.4145 15.7425 14.7181 16.1524 14.7181 16.636C14.7181 17.2317 14.2577 17.7149 13.6901 17.7149Z" fill="currentColor"/>
</svg>
