<svg width="14" height="14" viewBox="0 0 14 14" fill="none" xmlns="http://www.w3.org/2000/svg">
<path d="M5.33486 1.83815C5.13238 1.33193 4.64212 1 4.09693 1H2.26313C1.56552 1 1 1.5654 1 2.26302C1 8.19282 5.80706 13 11.7367 13C12.4343 13 12.9997 12.4344 12.9997 11.7368L13 9.90265C13 9.35744 12.6682 8.86724 12.162 8.66476L10.4044 7.96196C9.94968 7.78008 9.43197 7.86194 9.05576 8.17546L8.60215 8.55379C8.07239 8.99526 7.29293 8.96015 6.80531 8.47253L5.52803 7.19404C5.04042 6.70642 5.00439 5.92756 5.44585 5.39779L5.82409 4.9442C6.13761 4.56797 6.22019 4.05011 6.03831 3.5954L5.33486 1.83815Z" stroke="white" stroke-width="2" stroke-linecap="round" stroke-linejoin="round"/>
</svg>
