<svg width="20" height="20" viewBox="0 0 20 20" fill="none" xmlns="http://www.w3.org/2000/svg">
<g clip-path="url(#clip0_200_6718)">
<path d="M19.2281 5.95778C18.7292 4.79222 18.0092 3.74111 17.1214 2.85889C16.2314 1.97556 15.1725 1.26111 13.9981 0.766667C12.8225 0.273333 11.5325 0 10.1781 0C8.82361 0 7.5325 0.273333 6.35806 0.766667C5.18361 1.26111 4.12472 1.97556 3.23472 2.85889C2.34583 3.74111 1.62472 4.79222 1.12806 5.95778C0.630278 7.12444 0.354722 8.40556 0.354722 9.74889C0.354722 10.1844 0.383611 10.6156 0.441389 11.0433C0.499167 11.4711 0.584722 11.8933 0.698056 12.3078C0.811389 12.7222 0.9525 13.1289 1.11917 13.5256C1.28583 13.9222 1.48139 14.3078 1.70139 14.68L1.28028 15.9244L0.858056 17.1678L0.436944 18.4122L0.0147222 19.6567C0.00583333 19.68 0.00138889 19.7033 0.000277778 19.7278C-0.000833333 19.7511 0.00138889 19.7756 0.00694444 19.7978C0.0125 19.82 0.0202778 19.8433 0.0313889 19.8644C0.0425 19.8856 0.0569444 19.9044 0.0747222 19.9222C0.0869444 19.9356 0.100278 19.9456 0.114722 19.9556C0.129167 19.9656 0.144722 19.9744 0.160278 19.98C0.175833 19.9856 0.1925 19.9911 0.209167 19.9944C0.225833 19.9978 0.2425 20 0.260278 20C0.266944 20 0.273611 20 0.280278 19.9989C0.286944 19.9989 0.293611 19.9978 0.300278 19.9967C0.306944 19.9956 0.313611 19.9944 0.320278 19.9933C0.326944 19.9911 0.333611 19.99 0.340278 19.9878L1.63694 19.5756L2.93361 19.1633L4.23139 18.7511L5.52806 18.3389C5.88361 18.5289 6.24917 18.6956 6.62583 18.84C7.00139 18.9844 7.38583 19.1056 7.77694 19.2033C8.16806 19.3 8.56472 19.3733 8.96583 19.4233C9.36695 19.4722 9.7725 19.4967 10.1781 19.4967C11.5325 19.4967 12.8225 19.2244 13.9981 18.73C15.1725 18.2367 16.2314 17.5211 17.1214 16.6389C18.0103 15.7567 18.7292 14.7067 19.2281 13.54C19.7247 12.3744 20.0003 11.0933 20.0003 9.74889C20.0003 8.40556 19.7247 7.12444 19.2281 5.95778ZM15.2914 12.3433C15.2803 12.4622 15.2614 12.5933 15.2303 12.7256C15.2014 12.8589 15.1603 12.9956 15.1136 13.1278C15.0525 13.2978 14.9403 13.46 14.7981 13.6078C14.6558 13.7567 14.4836 13.89 14.3047 14.0044C14.1247 14.1189 13.9381 14.2133 13.7647 14.2822C13.5914 14.3511 13.4325 14.3944 13.3114 14.4044L13.2936 14.4056L13.2758 14.4078L13.2569 14.41L13.2381 14.4111C13.2103 14.4144 13.1814 14.4167 13.1514 14.42C13.1214 14.4222 13.0881 14.4256 13.0558 14.4278C13.0236 14.43 12.9881 14.4322 12.9514 14.4333C12.9158 14.4344 12.8781 14.4356 12.8381 14.4356C12.7436 14.4356 12.6292 14.4311 12.4903 14.4156C12.3525 14.4011 12.1892 14.3756 11.9936 14.3322C11.7981 14.2889 11.5703 14.2278 11.3036 14.1422C11.0358 14.0567 10.7292 13.9467 10.3769 13.8056C10.0103 13.6589 9.64472 13.47 9.28472 13.2444C8.92472 13.0178 8.56917 12.7522 8.22472 12.4522C7.87917 12.1522 7.54361 11.8189 7.2225 11.4544C6.90139 11.0889 6.59361 10.6933 6.30361 10.2689C6.29806 10.2622 6.29361 10.2544 6.28917 10.25C6.28472 10.2433 6.28139 10.2378 6.27806 10.2322C6.27361 10.2267 6.27139 10.2222 6.26917 10.2189C6.26583 10.2144 6.26361 10.2111 6.26139 10.2089C6.18583 10.1089 6.08472 9.96889 5.97583 9.79667C5.86694 9.62556 5.75028 9.42111 5.64361 9.19556C5.53583 8.97 5.43917 8.72222 5.36806 8.46111C5.29694 8.2 5.2525 7.92556 5.2525 7.64778C5.2525 7.33889 5.29028 7.06333 5.35028 6.82C5.41028 6.57667 5.49583 6.36667 5.59139 6.18778C5.68806 6.00778 5.79472 5.86111 5.90028 5.74556C6.00472 5.63 6.10806 5.54333 6.19472 5.48889C6.27694 5.43667 6.38472 5.39222 6.50361 5.35333C6.62139 5.31556 6.75028 5.28333 6.8725 5.25778C6.99472 5.23222 7.11139 5.21222 7.20583 5.19889C7.30028 5.18556 7.3725 5.17778 7.40694 5.17667C7.43472 5.17556 7.45472 5.17444 7.46806 5.17333C7.4825 5.17333 7.49028 5.17222 7.49472 5.17222C7.49917 5.17222 7.5025 5.17222 7.50583 5.17222C7.50806 5.17222 7.51139 5.17222 7.51917 5.17222C7.59139 5.17222 7.65806 5.18333 7.72139 5.20444C7.78361 5.22778 7.84139 5.26111 7.89583 5.30667C7.94917 5.35222 7.99917 5.40889 8.04583 5.47778C8.0925 5.54667 8.13472 5.63 8.17361 5.72333C8.19028 5.76222 8.24139 5.88556 8.30806 6.04667C8.37583 6.20889 8.45917 6.41222 8.5425 6.61222C8.62583 6.81222 8.70806 7.00889 8.77139 7.16C8.83583 7.31222 8.88028 7.41778 8.88917 7.43444C8.89917 7.45556 8.91583 7.48667 8.93139 7.52667C8.94695 7.56667 8.9625 7.61556 8.97139 7.67222C8.98139 7.72889 8.98472 7.79 8.97583 7.85889C8.96694 7.92667 8.94694 7.99889 8.90917 8.07556L8.90028 8.09111L8.8925 8.10778L8.88472 8.12444L8.87583 8.14C8.86028 8.17222 8.84583 8.20333 8.83028 8.23222C8.81472 8.26333 8.79806 8.29333 8.77917 8.32333C8.76139 8.35445 8.74139 8.38444 8.71917 8.41667C8.69583 8.44778 8.67028 8.48222 8.64028 8.51667C8.63028 8.52778 8.62028 8.54 8.61139 8.55C8.60028 8.56222 8.59028 8.57444 8.58028 8.58667C8.57028 8.59778 8.56028 8.61 8.55139 8.62111C8.5425 8.63222 8.53139 8.64444 8.52139 8.65667C8.50028 8.68111 8.48028 8.70667 8.45917 8.73111C8.43806 8.75556 8.41694 8.78111 8.39583 8.80556C8.37472 8.83 8.35472 8.85333 8.33361 8.87556C8.3125 8.89778 8.2925 8.91889 8.2725 8.93889C8.26583 8.94556 8.25806 8.95444 8.24917 8.96222C8.24028 8.97222 8.23139 8.98222 8.2225 8.99222C8.21361 9.00111 8.20583 9.01 8.19917 9.01889C8.19361 9.02667 8.18917 9.03444 8.18806 9.04C8.18806 9.04 8.18806 9.04111 8.18806 9.04333C8.18806 9.04556 8.18917 9.04889 8.19028 9.05445C8.19139 9.05889 8.19361 9.06556 8.19806 9.07222C8.20139 9.08 8.20583 9.08889 8.21139 9.09778C8.2525 9.16778 8.35695 9.32 8.51472 9.52333C8.67361 9.72667 8.88583 9.97667 9.1425 10.2411C9.39917 10.5044 9.70028 10.7811 10.0336 11.0344C10.3669 11.2878 10.7347 11.5167 11.1258 11.6867C11.1436 11.6944 11.1692 11.7056 11.1992 11.7178C11.2303 11.7311 11.2669 11.7444 11.2992 11.7589C11.3325 11.7722 11.3647 11.7833 11.3881 11.7933C11.4114 11.8022 11.4292 11.8089 11.4314 11.8089C11.4358 11.8089 11.4403 11.8067 11.4447 11.8044C11.4492 11.8022 11.4536 11.7978 11.4603 11.7933C11.4647 11.7889 11.4692 11.7844 11.4758 11.7789C11.4803 11.7733 11.4847 11.7689 11.4892 11.7633C11.5236 11.7244 11.5769 11.6633 11.6392 11.59C11.7025 11.5178 11.7758 11.4311 11.8481 11.3433C11.9214 11.2567 11.9947 11.1667 12.0581 11.0856C12.1214 11.0044 12.1758 10.9311 12.2125 10.8778C12.2447 10.8289 12.2803 10.7867 12.3169 10.7511C12.3536 10.7144 12.3925 10.6833 12.4336 10.66C12.4747 10.6356 12.5169 10.6167 12.5625 10.6044C12.6069 10.5922 12.6547 10.5856 12.7047 10.5856C12.7336 10.5856 12.7636 10.5878 12.7936 10.5922C12.8214 10.5967 12.8514 10.6022 12.8792 10.61C12.9069 10.6167 12.9347 10.6256 12.9625 10.6333C12.9892 10.6422 13.0169 10.6522 13.0425 10.66C13.1081 10.6833 13.2481 10.7456 13.4214 10.8267C13.5947 10.9067 13.8025 11.0056 14.0036 11.1033C14.2047 11.2 14.3981 11.2944 14.5436 11.3656C14.6903 11.4367 14.7892 11.4844 14.7981 11.4889C14.8458 11.5122 14.8903 11.5344 14.9336 11.5567C14.9747 11.5789 15.0147 11.6 15.0503 11.6244C15.0869 11.6478 15.1203 11.6733 15.1503 11.7022C15.1781 11.73 15.2047 11.7622 15.2258 11.7978C15.2581 11.8511 15.2792 11.9267 15.2892 12.02C15.3014 12.1144 15.3014 12.2244 15.2914 12.3433Z" fill="white"/>
</g>
<defs>
<clipPath id="clip0_200_6718">
<rect width="20" height="20" fill="white"/>
</clipPath>
</defs>
</svg>
