<svg width="18" height="18" viewBox="0 0 18 18" fill="none" xmlns="http://www.w3.org/2000/svg">
<path d="M13.6341 16.1111C13.6341 16.602 14.0382 17 14.5366 17C15.035 17 15.439 16.602 15.439 16.1111C15.439 15.6202 15.035 15.2222 14.5366 15.2222C14.0382 15.2222 13.6341 15.6202 13.6341 16.1111Z" fill="#B08300"/>
<path d="M4.60975 16.1111C4.60975 16.602 5.01378 17 5.51219 17C6.01059 17 6.41462 16.602 6.41462 16.1111C6.41462 15.6202 6.01059 15.2222 5.51219 15.2222C5.01378 15.2222 4.60975 15.6202 4.60975 16.1111Z" fill="#B08300"/>
<path d="M1 1H1.24217C1.66972 1 1.88388 1 2.05826 1.07598C2.21201 1.14297 2.34347 1.25082 2.43826 1.38759C2.5456 1.54245 2.58436 1.74924 2.66172 2.16202L4.60978 12.5556L14.0148 12.5556C14.4238 12.5556 14.6289 12.5556 14.7983 12.4844C14.9479 12.4215 15.077 12.3197 15.1728 12.1902C15.2812 12.0437 15.3272 11.8477 15.4189 11.4561L15.4196 11.4533L16.8357 5.40885L16.836 5.40759C16.9752 4.81347 17.045 4.51569 16.9684 4.28212C16.9012 4.07717 16.7597 3.90342 16.5721 3.79282C16.3581 3.66667 16.0488 3.66667 15.4288 3.66667H2.94374M14.5366 17C14.0382 17 13.6341 16.602 13.6341 16.1111C13.6341 15.6202 14.0382 15.2222 14.5366 15.2222C15.035 15.2222 15.439 15.6202 15.439 16.1111C15.439 16.602 15.035 17 14.5366 17ZM5.51219 17C5.01378 17 4.60975 16.602 4.60975 16.1111C4.60975 15.6202 5.01378 15.2222 5.51219 15.2222C6.01059 15.2222 6.41462 15.6202 6.41462 16.1111C6.41462 16.602 6.01059 17 5.51219 17Z" stroke="#B08300" stroke-width="2" stroke-linecap="round" stroke-linejoin="round"/>
<path d="M17 4H3L5 12.5H14.5L17 4Z" fill="#B08300"/>
</svg>
