<svg width="16" height="16" viewBox="0 0 16 16" fill="none" xmlns="http://www.w3.org/2000/svg">
<path d="M11.9996 14.0776L15.679 2.11955L15.6795 2.11831L15.6796 2.11824C15.9386 1.27636 16.0682 0.855032 15.9638 0.570515C15.8728 0.322563 15.6773 0.127279 15.4293 0.0362524C15.1447 -0.0682529 14.7231 0.0613002 13.8804 0.320613L1.92246 4.00002C0.850478 4.32986 0.31444 4.49511 0.136719 4.77955C-0.0174091 5.02624 -0.0428323 5.33194 0.068645 5.6006C0.197186 5.91039 0.698816 6.16142 1.70199 6.66301L5.37364 8.99887L11.22 4.77975L7.00651 10.6368L9.33696 14.2978C9.83854 15.3009 10.09 15.8029 10.3998 15.9315C10.6684 16.043 10.9738 16.0172 11.2205 15.8631C11.5049 15.6854 11.6699 15.1493 11.9996 14.0776Z" fill="#B08300"/>
</svg>
