<?xml version="1.0" encoding="utf-8"?><svg xmlns="http://www.w3.org/2000/svg" xmlns:xlink="http://www.w3.org/1999/xlink"><symbol fill="none" viewBox="0 0 22 13" id="accordion-arrow" xmlns="http://www.w3.org/2000/svg"><path d="m20.707 11.414-10-10-10 10" stroke="currentColor" stroke-width="2"/></symbol><symbol fill="none" viewBox="0 0 45 42" id="advantages-1" xmlns="http://www.w3.org/2000/svg"><path d="M24 16c1.958-2.583 2.833-4 6-4h5c2.512 0 6 .969 6 5v6M29 23v-4h-1l-2 1M37 18v5M14 42V18h1.08s2.296 1.749 3.92 3c2.542 1.958 5.409-.525 5.409-.525S20.708 16.542 19 15c-1.789-1.615-3.774-3-7-3H7c-2.512 0-6 1.394-6 6v4c0 2.216 2.195 4 4 4M5 17v25M9 28v14M9.5 1C7.639 1 6 2.321 6 4.2v1.6C6 7.679 7.639 9 9.5 9 11.36 9 13 7.679 13 5.8V4.2C13 2.321 11.36 1 9.5 1ZM33.5 1C31.639 1 30 2.321 30 4.2v1.6C30 7.679 31.639 9 33.5 9 35.36 9 37 7.679 37 5.8V4.2C37 2.321 35.36 1 33.5 1Z" stroke="currentColor" stroke-width="2" stroke-miterlimit="10"/><path d="M34 30h10v-4H17M41 30v12M41 38H17M27 30H17" stroke="currentColor" stroke-width="2" stroke-miterlimit="10"/></symbol><symbol fill="none" viewBox="0 0 48 37" id="advantages-2" xmlns="http://www.w3.org/2000/svg"><path d="M5 11V8h27v5M42 26h1v-6.268c0-.209-.038-.417-.112-.61l-2.677-7.01a1.582 1.582 0 0 0-1.302-1.027L32 10.361M9 4V1h27v5" stroke="currentColor" stroke-width="2" stroke-miterlimit="10" stroke-linecap="round" stroke-linejoin="round"/><path d="M46 19h1v-6.268c0-.209-.038-.417-.112-.61l-2.677-7.01a1.582 1.582 0 0 0-1.302-1.027L36 3.361" stroke="currentColor" stroke-width="2" stroke-miterlimit="10" stroke-linecap="round" stroke-linejoin="round"/><path d="M33 36a3 3 0 1 0 0-6 3 3 0 0 0 0 6ZM8 36a3 3 0 1 0 0-6 3 3 0 0 0 0 6Z" stroke="currentColor" stroke-width="2" stroke-miterlimit="10"/><path d="M5 33H1V14.891h27v18.11H11" stroke="currentColor" stroke-width="2" stroke-miterlimit="10" stroke-linecap="round" stroke-linejoin="round"/><path d="M28 33h2" stroke="currentColor" stroke-width="2" stroke-miterlimit="10"/><path d="M36 33h3v-6.268c0-.209-.038-.417-.112-.61l-2.677-7.01a1.582 1.582 0 0 0-1.302-1.027L28 17.361" stroke="currentColor" stroke-width="2" stroke-miterlimit="10" stroke-linecap="round" stroke-linejoin="round"/><path d="m35.698 25.281-3.762-.633-.821-3.367" stroke="currentColor" stroke-width="2" stroke-miterlimit="10" stroke-linecap="round" stroke-linejoin="round"/></symbol><symbol fill="none" viewBox="0 0 48 38" id="advantages-3" xmlns="http://www.w3.org/2000/svg"><path d="M1.001 7V1h30v24h-5" stroke="currentColor" stroke-width="2" stroke-miterlimit="10" stroke-linecap="round" stroke-linejoin="round"/><path d="M40.001 28a3 3 0 1 0 0-6 3 3 0 0 0 0 6ZM31.001 25h6" stroke="currentColor" stroke-width="2" stroke-miterlimit="10"/><path d="M43.001 25h4v-2.836c0-1.163-.212-2.13-1-3.224-.298-.413-2.741-2.782-3.855-3.52-1.547-2.75-1.874-3.232-3.145-5.419M34.001 10h5c-.9-1.755-4.5-6.026-6.397-6h-1.603M34.001 13.606l1 2.833 4.583.5" stroke="currentColor" stroke-width="2" stroke-miterlimit="10" stroke-linecap="round" stroke-linejoin="round"/><path d="M9.001 17c2.29 0 4-1.918 4-4.285v-1.43c0-2.366-1.71-4.285-4-4.285s-4 1.919-4 4.285v1.43c0 2.367 1.71 4.285 4 4.285Z" stroke="currentColor" stroke-width="2" stroke-miterlimit="10" stroke-linecap="round"/><path d="m8.857 33.503-3.231-.658c-.951-.134-1.596-.347-2.483-1.688l-.854-1.883C1.536 27.619 1 26.909 1 25.563 1 22.744 2.441 20 5.619 20h5.764c1.848.075 2.982.398 3.991 1.615s1.955 2.364 1.955 2.364" stroke="currentColor" stroke-width="2" stroke-miterlimit="10" stroke-linecap="round" stroke-linejoin="round"/><path d="m5.738 25.285.904 2.26c.361.902.797 1.256 1.639 1.567l2.328.827M19.544 32h-3.53c-.19-2.375 1.876-4 1.876-4h3.172c.698 0 1.151.782.839 1.447l-.679 1.447c-.318.678-.968 1.106-1.678 1.106Z" stroke="currentColor" stroke-width="2" stroke-miterlimit="10" stroke-linecap="round" stroke-linejoin="round"/><path d="m20.589 28 1.315-2.692c.3-.61-.137-1.329-.807-1.329h-7.004a.901.901 0 0 0-.807.508l-4.511 9.184c-.3.61.136 1.329.807 1.329h7.005a.9.9 0 0 0 .807-.508L18.618 32M5.001 32.724V37M15.001 35v2" stroke="currentColor" stroke-width="2" stroke-miterlimit="10" stroke-linecap="round" stroke-linejoin="round"/></symbol><symbol fill="none" viewBox="0 0 48 36" id="advantages-4" xmlns="http://www.w3.org/2000/svg"><path d="M9 25h11" stroke="currentColor" stroke-width="2" stroke-miterlimit="10" stroke-linecap="round"/><path d="M22.51 6H6.49c-.909 0-1.703.61-1.935 1.49C4.288 8.502 4 10.859 4 12v18a2 2 0 0 0 2 2h17a2 2 0 0 0 2-2V12c0-1.141-.288-3.498-.555-4.51A1.999 1.999 0 0 0 22.51 6Z" stroke="currentColor" stroke-width="2" stroke-miterlimit="10" stroke-linejoin="round"/><path d="m4 20-2.274-.647A1 1 0 0 1 1 18.391v-3.912M25 20l2.274-.647a1 1 0 0 0 .726-.962v-3.912" stroke="currentColor" stroke-width="2" stroke-miterlimit="10" stroke-linecap="round"/><path d="M4 12h21M4 30v4.25c0 .414.448.75 1 .75h3c.552 0 1-.336 1-.75V32M20 32v2.25c0 .414.448.75 1 .75h3c.552 0 1-.336 1-.75V30" stroke="currentColor" stroke-width="2" stroke-miterlimit="10"/><path d="m4 27 1.414 1.414A2 2 0 0 0 6.828 29H8M25 27l-1.414 1.414a2.001 2.001 0 0 1-1.415.586H21" stroke="currentColor" stroke-width="2" stroke-miterlimit="10" stroke-linecap="round"/><path d="M6 3V1h22v7M28 1h1l18 13v4.5" stroke="currentColor" stroke-width="2" stroke-miterlimit="10" stroke-linecap="round" stroke-linejoin="round"/><path d="M25 17a4 4 0 0 1-4 4H8a4 4 0 0 1-4-4" stroke="currentColor" stroke-width="2" stroke-miterlimit="10"/><path d="M12 29h5" stroke="currentColor" stroke-width="2" stroke-miterlimit="10" stroke-linecap="round"/><path d="m44.15 20-9.5 9.375-3.8-3.75L28 28.437 34.65 35 47 22.812 44.15 20Z" stroke="currentColor" stroke-width="2" stroke-miterlimit="10" stroke-linejoin="round"/></symbol><symbol fill="none" viewBox="0 0 47 46" id="advantages-5" xmlns="http://www.w3.org/2000/svg"><path d="M31 45a3 3 0 1 0 0-6 3 3 0 0 0 0 6ZM26 42h2" stroke="currentColor" stroke-width="2" stroke-miterlimit="10"/><path d="M34 42h3v-6.268c0-.209-.038-.417-.112-.61l-2.677-7.01a1.582 1.582 0 0 0-1.302-1.027L26 26.361" stroke="currentColor" stroke-width="2" stroke-miterlimit="10" stroke-linecap="round" stroke-linejoin="round"/><path d="m33.698 34.281-3.762-.633-.821-3.367M16.074 20.501A15.193 15.193 0 0 1 16 19c0-8.284 6.716-15 15-15 8.284 0 15 6.716 15 15 0 4.934-2.382 9.312-6.06 12.046" stroke="currentColor" stroke-width="2" stroke-miterlimit="10" stroke-linecap="round" stroke-linejoin="round"/><path d="M8 45a3 3 0 1 0 0-6 3 3 0 0 0 0 6Z" stroke="currentColor" stroke-width="2" stroke-miterlimit="10"/><path d="M11 42h15V24H1v18h4M31 4V1M29 1h4M31 8v11M20.394 8.394 18.5 6.5M41.606 8.394 43.5 6.5" stroke="currentColor" stroke-width="2" stroke-miterlimit="10" stroke-linecap="round" stroke-linejoin="round"/></symbol><symbol fill="none" viewBox="0 0 48 32" id="advantages-6" xmlns="http://www.w3.org/2000/svg"><path d="M21 31a3 3 0 1 0 0-6 3 3 0 0 0 0 6ZM41 31a3 3 0 1 0 0-6 3 3 0 0 0 0 6Z" stroke="currentColor" stroke-width="2" stroke-miterlimit="10"/><path d="M24 28h11V11H25M18 28h-2" stroke="currentColor" stroke-width="2" stroke-miterlimit="10" stroke-linecap="round" stroke-linejoin="round"/><path d="M35 28h3" stroke="currentColor" stroke-width="2" stroke-miterlimit="10"/><path d="M35 15h4.092c1.182 0 1.826.302 2.487 1.339l2.35 3.917s1.571 1.657 2.1 2.271c.748.851.972 1.432.972 2.305v3.169h-3M1 11.5C1 5.701 5.701 1 11.5 1S22 5.701 22 11.5c-.383 7.237-7.891 11.571-9.969 18.129-.164.515-.906.484-1.071-.031C8.813 22.886 1 19.099 1 11.5Z" stroke="currentColor" stroke-width="2" stroke-miterlimit="10" stroke-linecap="round" stroke-linejoin="round"/><path d="M11.5 15a3.5 3.5 0 1 0 0-7 3.5 3.5 0 0 0 0 7Z" stroke="currentColor" stroke-width="2" stroke-miterlimit="10" stroke-linecap="round" stroke-linejoin="round"/></symbol><symbol fill="none" viewBox="0 0 18 13" id="apply" xmlns="http://www.w3.org/2000/svg"><path d="m1 6.657 4.95 4.95L16.557 1" stroke="#fff" stroke-width="2" stroke-linecap="round" stroke-linejoin="round"/></symbol><symbol fill="none" viewBox="0 0 10 7" id="arrow" xmlns="http://www.w3.org/2000/svg"><path d="m.707.707 4 4 4-4" stroke="currentColor" stroke-width="2"/></symbol><symbol fill="none" viewBox="0 0 32 22" id="arrow-slider" xmlns="http://www.w3.org/2000/svg"><path d="m11.414.707-10 10m0 0 10 10m-10-10h30" stroke="currentColor" stroke-width="2"/></symbol><symbol fill="none" viewBox="0 0 23 13" id="cookie-check" xmlns="http://www.w3.org/2000/svg"><path d="m5.95 6.657 4.95 4.95L21.507 1M1 6.707l4.95 4.95M16.556 1.05l-5.303 5.304" stroke="currentColor" stroke-width="2" stroke-linecap="round" stroke-linejoin="round"/></symbol><symbol fill="none" viewBox="0 0 14 16" id="download" xmlns="http://www.w3.org/2000/svg"><path d="M1 15h12M7 1v10m0 0 5-5m-5 5L2 6" stroke="#fff" stroke-width="2" stroke-linecap="round" stroke-linejoin="round"/></symbol><symbol fill="none" viewBox="0 0 14 16" id="gard" xmlns="http://www.w3.org/2000/svg"><path d="M7.694 14.831C9.274 14.083 13 11.773 13 6.621V3.508c0-.877 0-1.316-.163-1.652a1.537 1.537 0 0 0-.656-.685C11.86 1 11.44 1 10.6 1H3.4c-.84 0-1.261 0-1.582.171-.282.15-.512.39-.656.685C1 2.192 1 2.632 1 3.51v3.11c0 5.153 3.726 7.463 5.305 8.211.168.08.252.119.442.153.12.021.388.021.507 0a1.45 1.45 0 0 0 .439-.152l.001-.001Z" stroke="#fff" stroke-width="2" stroke-linecap="round" stroke-linejoin="round"/></symbol><symbol fill="none" viewBox="0 0 23 22" id="logo-creation" xmlns="http://www.w3.org/2000/svg"><path d="M3.517 10.994s.62-.069 1.795-2.055c0 0 .027-.035.07-.102.584 2.716 3.389 2.277 3.389 2.277l.27-1.054c-1.885.411-1.91-1.823-1.91-1.823l2.888 1.001c.256-.283.42-.634.488-1.012.027.905-.054 1.88-.316 2.888 0 0 1.745-.669 2.952.496 0 0-.115-2.023-.718-4.114.346-.214 1.086-.529 1.216.587.172 1.464 2.13 3.493 3.965.975 0 0-1.15.668-1.787-.719-.595-1.297-.826-2.998-2.435-2.499.921-.733 1.783-1.92.698-3.023-1.447-1.472-3.702.285-4.1.616-.26-.17-.54-.302-.844-.385 0 0 .93 1.603 1.26 3.918a2.704 2.704 0 0 0-1.333-1.503c-.81-.42-1.886-.344-2.683.217.168-1.401.129-3.278-.45-5.68L3.126 1.473s2.186 4.383.195 7.295c0 0-2.545-1.61-.946-4.864L.744 3.596s-.841.996-.735 2.56c.124 1.808 1.326 4.255 3.508 4.838Zm9.464-7.207c.636.82-.316 1.555-1.143 1.714 0 0-.151-.968-.701-1.599 0 0 1.208-.936 1.844-.115Zm-4.189 2.42c.53.188.818.813.716 1.467l-2.111-.806c.306-.555.88-.846 1.395-.662ZM18.92 8.492h.035c-.313 1.13-.872 1.775-1.569 2.243-1.273.857-2.937.378-2.937.378.375 1.095 4.47 3.15 5.743-.48 1.273-3.63-1.028-6.113-1.028-6.113.119 1.502.072 2.64-.102 3.52-.336.051-2.117.157-1.317-3.589l-1.828-.72s-.913 5.138 3.003 4.761ZM20.24 13.785c-2.169-.548-3.556.154-3.556.154s1.305.428 1.534 2.637c.228 2.21-2.072 3.733-2.072 3.733s2.545.497 4.454-.343c1.909-.838 1.958-2.893 1.958-3.184 0-.292-.147-2.45-2.317-2.997Zm-.548 4.659a.99.99 0 0 1-.115-.002c.332-.359.536-.925.51-1.553-.031-.767-.393-1.41-.885-1.685.112-.042.23-.068.355-.074.765-.034 1.415.68 1.453 1.595.037.915-.553 1.685-1.318 1.719Zm-2.478-1.604c0-1.659-1.298-3.004-2.9-3.004-.158 0-.314.014-.465.04-.42-1.078-1.428-1.838-2.606-1.838-1.432 0-2.614 1.123-2.79 2.576-1.243.24-2.586 1.068-3.035 3.409l1.493.36s.298-.872 1.096-1.656l.03.089s.196 2.569-1.787 2.877C4.268 20 3.068 17.715 3.68 16.2c.612-1.516 1.86-1.114 1.86-1.114l2.415-2.38-.906-.394c-2.553-.942-5.84.805-6.036 4.632-.196 3.827 3.891 6.165 6.73 4.213 1.538-1.057 1.84-2.612 1.795-3.815a2.715 2.715 0 0 0 2.07.579c.42 1.124 1.473 1.922 2.706 1.922 1.602 0 2.9-1.344 2.9-3.003Zm-5.347-1.61a3.643 3.643 0 0 0-.081.138 1 1 0 0 1-.825.446.985.985 0 0 1-.651-.248c.202-.033.415-.055.639-.06l-.073-.77s-.367-.117-.914-.175c.085-.499.5-.879 1-.879.56 0 1.015.477 1.015 1.066a1.1 1.1 0 0 1-.11.482Zm1.823 2.485c-.302 0-.574-.138-.762-.357a2.973 2.973 0 0 0 1.068-1.752c.418.136.722.546.722 1.03 0 .596-.46 1.079-1.028 1.079Z" fill="currentColor"/></symbol><symbol fill="none" viewBox="0 0 18 10" id="long-arrow" xmlns="http://www.w3.org/2000/svg"><path d="m12 8.707 4-4m0 0-4-4m4 4H0" stroke="currentColor" stroke-width="2"/></symbol><symbol fill="none" viewBox="0 0 20 16" id="mail" xmlns="http://www.w3.org/2000/svg"><path d="m2 2 6.108 4.612.002.002c.678.497 1.017.746 1.389.842.328.085.673.085 1.002 0 .372-.096.712-.346 1.392-.844 0 0 3.917-3.006 6.107-4.612M1 11.8V4.2c0-1.12 0-1.68.218-2.108.192-.377.497-.682.874-.874C2.52 1 3.08 1 4.2 1h11.6c1.12 0 1.68 0 2.107.218.377.192.683.497.875.874.218.427.218.987.218 2.105v7.607c0 1.117 0 1.676-.218 2.104a2.002 2.002 0 0 1-.875.874c-.427.218-.986.218-2.104.218H4.197c-1.118 0-1.678 0-2.105-.218a2 2 0 0 1-.874-.874C1 13.48 1 12.92 1 11.8Z" stroke="#fff" stroke-width="2" stroke-linecap="round" stroke-linejoin="round"/></symbol><symbol fill="none" viewBox="0 0 12 12" id="phone" xmlns="http://www.w3.org/2000/svg"><path d="M4.335.838A1.333 1.333 0 0 0 3.097 0H1.263C.566 0 0 .565 0 1.263 0 7.193 4.807 12 10.737 12c.697 0 1.263-.566 1.263-1.263V8.903c0-.546-.332-1.036-.838-1.238l-1.758-.703a1.333 1.333 0 0 0-1.348.213l-.454.379c-.53.441-1.31.406-1.797-.081L4.528 6.194a1.333 1.333 0 0 1-.082-1.796l.378-.454c.314-.376.396-.894.214-1.349L4.335.838Z" fill="currentColor"/></symbol><symbol fill="none" viewBox="0 0 14 14" id="phone-2" xmlns="http://www.w3.org/2000/svg"><path d="M5.335 1.838A1.333 1.333 0 0 0 4.097 1H2.263C1.566 1 1 1.565 1 2.263 1 8.193 5.807 13 11.737 13c.697 0 1.263-.566 1.263-1.263V9.903c0-.546-.332-1.036-.838-1.238l-1.758-.703a1.333 1.333 0 0 0-1.348.213l-.454.379c-.53.441-1.31.406-1.797-.081L5.528 7.194a1.333 1.333 0 0 1-.082-1.796l.378-.454c.314-.376.396-.894.214-1.349l-.703-1.757Z" stroke="#fff" stroke-width="2" stroke-linecap="round" stroke-linejoin="round"/></symbol><symbol fill="none" viewBox="0 0 14 14" id="procent" xmlns="http://www.w3.org/2000/svg"><path d="M10 11.5a1.5 1.5 0 1 0 3 0 1.5 1.5 0 0 0-3 0ZM1 2.5a1.5 1.5 0 1 0 3 0 1.5 1.5 0 0 0-3 0ZM13 1 7 7l-6 6" stroke="#fff" stroke-width="2" stroke-linecap="round" stroke-linejoin="round"/></symbol><symbol fill="none" viewBox="0 0 18 18" id="share" xmlns="http://www.w3.org/2000/svg"><path d="m5.707 11.364 5.657-5.656m-7.778 2.12L2.172 9.244a4 4 0 1 0 5.657 5.656l1.413-1.414m-1.414-9.9 1.414-1.414A4 4 0 1 1 14.9 7.83l-1.414 1.414" stroke="#fff" stroke-width="2" stroke-linecap="round" stroke-linejoin="round"/></symbol><symbol fill="none" viewBox="0 0 20 20" id="whatsapp" xmlns="http://www.w3.org/2000/svg"><g clip-path="url(#va)"><path d="M19.228 5.958a9.822 9.822 0 0 0-2.107-3.1A9.875 9.875 0 0 0 13.998.768 9.846 9.846 0 0 0 10.178 0a9.843 9.843 0 0 0-3.82.767 9.876 9.876 0 0 0-3.124 2.092 9.768 9.768 0 0 0-2.106 3.099 9.637 9.637 0 0 0-.687 5.085 9.731 9.731 0 0 0 1.26 3.637l-.421 1.244-.422 1.244-.421 1.244-.423 1.245a.246.246 0 0 0-.008.141.237.237 0 0 0 .068.124.225.225 0 0 0 .04.034c.015.01.03.018.046.024a.344.344 0 0 0 .1.02l.02-.001a.124.124 0 0 0 .02-.002l.02-.004.02-.005 1.297-.412 1.296-.413 1.298-.412 1.297-.412a9.877 9.877 0 0 0 4.65 1.158 9.827 9.827 0 0 0 6.943-2.858 9.791 9.791 0 0 0 2.107-3.099A9.647 9.647 0 0 0 20 9.749a9.655 9.655 0 0 0-.772-3.791Zm-3.937 6.385a3.38 3.38 0 0 1-.178.785 1.39 1.39 0 0 1-.315.48 2.686 2.686 0 0 1-.493.396c-.18.115-.367.21-.54.278a1.688 1.688 0 0 1-.454.122l-.018.002-.017.002-.02.002-.018.001-.087.009-.095.008a2.732 2.732 0 0 1-.105.005c-.035.001-.073.003-.113.003-.095 0-.21-.005-.348-.02a4.431 4.431 0 0 1-.497-.084 7.734 7.734 0 0 1-.69-.19 13.748 13.748 0 0 1-.926-.336 6.874 6.874 0 0 1-1.093-.562 8.58 8.58 0 0 1-1.06-.792c-.345-.3-.68-.633-1.002-.998a12.368 12.368 0 0 1-.919-1.185l-.014-.019a.417.417 0 0 1-.011-.018l-.01-.013c-.002-.005-.005-.008-.007-.01a6.026 6.026 0 0 1-.618-1.013 4.388 4.388 0 0 1-.275-.735 3.106 3.106 0 0 1-.116-.813c0-.31.038-.585.098-.828a2.72 2.72 0 0 1 .241-.632c.097-.18.203-.327.309-.442a1.47 1.47 0 0 1 .294-.257c.083-.052.19-.097.31-.136.117-.037.246-.07.368-.095.122-.026.24-.046.334-.06a2.331 2.331 0 0 1 .262-.025h.051c.072 0 .139.01.202.031.062.024.12.057.175.103a.849.849 0 0 1 .15.17c.046.07.088.153.127.246l.135.324c.068.162.15.365.234.565l.23.548c.064.152.108.258.117.274.01.022.027.053.042.093a.699.699 0 0 1 .045.332.688.688 0 0 1-.067.217L8.9 8.09l-.008.017-.008.016-.008.016c-.016.032-.03.063-.046.092a1.306 1.306 0 0 1-.111.184c-.023.032-.049.066-.079.1l-.029.034a.896.896 0 0 0-.06.071l-.03.036-.062.074-.063.075-.063.07-.06.063-.024.023-.027.03a.25.25 0 0 0-.023.027.065.065 0 0 0-.011.021v.003c0 .003 0 .006.002.011a.058.058 0 0 0 .008.018 4.844 4.844 0 0 0 .317.451c.158.204.37.454.627.718.257.263.558.54.891.793.334.254.702.483 1.093.653.017.007.043.019.073.03.031.014.068.027.1.042.033.013.066.024.089.034a.498.498 0 0 0 .043.016.03.03 0 0 0 .014-.005l.015-.01c.004-.005.009-.01.016-.015l.013-.016.15-.173c.063-.072.137-.159.209-.247.073-.086.146-.176.21-.257.063-.082.118-.155.154-.208a.754.754 0 0 1 .221-.218.512.512 0 0 1 .36-.068c.028.005.058.01.086.018l.083.023c.027.01.055.02.08.027.066.023.206.086.38.167a91.031 91.031 0 0 1 1.122.539l.254.123c.048.023.092.045.135.068.042.022.082.043.117.067a.492.492 0 0 1 .176.173.55.55 0 0 1 .063.223c.012.094.012.204.002.323Z" fill="#43AD45"/></g><defs><clipPath id="va"><path fill="#fff" d="M0 0h20v20H0z"/></clipPath></defs></symbol><symbol fill="none" viewBox="0 0 20 20" id="whatsapp-2" xmlns="http://www.w3.org/2000/svg"><g clip-path="url(#ua)"><path d="M19.228 5.958a9.822 9.822 0 0 0-2.107-3.1A9.876 9.876 0 0 0 13.998.768 9.847 9.847 0 0 0 10.178 0a9.843 9.843 0 0 0-3.82.767 9.876 9.876 0 0 0-3.123 2.092 9.767 9.767 0 0 0-2.107 3.099 9.637 9.637 0 0 0-.687 5.085 9.731 9.731 0 0 0 1.26 3.637l-.42 1.244-.423 1.244-.421 1.244-.422 1.245a.246.246 0 0 0-.008.141.237.237 0 0 0 .068.124.225.225 0 0 0 .04.034c.014.01.03.018.045.024a.344.344 0 0 0 .1.02l.02-.001a.124.124 0 0 0 .02-.002l.02-.004.02-.005 1.297-.412 1.297-.413 1.297-.412 1.297-.412a9.878 9.878 0 0 0 4.65 1.158 9.828 9.828 0 0 0 9.05-5.957A9.65 9.65 0 0 0 20 9.749a9.657 9.657 0 0 0-.772-3.791Zm-3.937 6.385c-.01.12-.03.25-.06.383s-.07.27-.117.402c-.062.17-.174.332-.316.48a2.69 2.69 0 0 1-.493.396c-.18.115-.367.21-.54.278a1.687 1.687 0 0 1-.454.122l-.017.002-.018.002-.02.002-.018.001-.087.009-.095.008a2.726 2.726 0 0 1-.105.005c-.035.001-.073.003-.113.003-.094 0-.209-.005-.348-.02a4.433 4.433 0 0 1-.496-.084 7.753 7.753 0 0 1-.69-.19 13.768 13.768 0 0 1-.927-.336 6.878 6.878 0 0 1-1.092-.562 8.581 8.581 0 0 1-1.06-.792 10.6 10.6 0 0 1-1.002-.998 12.37 12.37 0 0 1-.92-1.185l-.014-.019a.398.398 0 0 1-.01-.018l-.01-.013a6.026 6.026 0 0 1-.626-1.023 4.388 4.388 0 0 1-.275-.735 3.105 3.105 0 0 1-.115-.813c0-.31.037-.585.097-.828a2.72 2.72 0 0 1 .241-.632c.097-.18.204-.327.31-.442a1.47 1.47 0 0 1 .294-.257c.082-.052.19-.097.309-.136.117-.037.246-.07.369-.095.122-.026.238-.046.333-.06a2.332 2.332 0 0 1 .262-.025h.051c.072 0 .14.01.202.031.063.024.12.057.175.103a.848.848 0 0 1 .15.17c.046.07.089.153.128.246l.134.324.235.565.228.548c.065.152.11.258.118.274.01.022.027.053.042.093a.699.699 0 0 1 .045.332.688.688 0 0 1-.067.217L8.9 8.09l-.008.017-.007.016-.01.016-.045.092a1.31 1.31 0 0 1-.111.184c-.023.032-.049.066-.079.1l-.029.034a.904.904 0 0 0-.06.071l-.03.036c-.02.024-.04.05-.062.074l-.063.075-.062.07-.061.063-.024.023-.027.03a.25.25 0 0 0-.023.027.065.065 0 0 0-.01.021v.003l.001.011a.057.057 0 0 0 .008.018 4.843 4.843 0 0 0 .317.451c.159.204.37.454.627.718.257.263.558.54.892.793.333.254.7.483 1.092.653.018.007.043.019.073.03.031.014.068.027.1.042l.09.034a.498.498 0 0 0 .042.016.03.03 0 0 0 .014-.005l.015-.01.016-.015.013-.016.15-.173c.064-.072.137-.159.21-.247.072-.086.146-.176.21-.257.062-.082.117-.155.154-.208a.76.76 0 0 1 .22-.218.512.512 0 0 1 .36-.068.79.79 0 0 1 .086.018l.084.023c.026.01.054.02.08.027a5.7 5.7 0 0 1 .378.167 88.096 88.096 0 0 1 1.122.539l.255.123.136.068c.04.022.08.043.116.067a.492.492 0 0 1 .175.173.55.55 0 0 1 .064.223c.012.094.012.204.002.323Z" fill="#fff"/></g><defs><clipPath id="ua"><path fill="#fff" d="M0 0h20v20H0z"/></clipPath></defs></symbol></svg>